*
G04 Mass Parameters ***
*
G04 Image ***
*
%IND:\SHECHEM\DOCUMENTS\ONEDRIVE\DOCUMENTS\SEMESTER 5\ELECTRONIC DESIGN REALIZATION\ORCAD\PCB_FINAL\SCHEMATIC 2_ADRIAN.SST*%
%ICAS*%
%MOIN*%
%IPPOS*%
%ASAXBY*%
G74*%FSLAN2X34Y34*%
*
G04 Aperture Definitions ***
*
%ADD10C,0.0550*%
%ADD11C,0.0520*%
%ADD12R,0.0520X0.0520*%
%ADD13R,0.0866X0.1180*%
%ADD14C,0.0620*%
%ADD15R,0.0620X0.0620*%
%ADD16C,0.0580*%
%ADD17R,0.0580X0.0580*%
%ADD18O,0.0600X0.0400*%
%ADD19R,0.0600X0.0400*%
%ADD20C,0.0490*%
%ADD21R,0.0490X0.0490*%
%ADD22C,0.0450*%
%ADD23C,0.0750*%
%ADD24R,0.0750X0.0750*%
%ADD25C,0.0500*%
%ADD26C,0.0315*%
%ADD27C,0.0197*%
%ADD28C,0.0720*%
%ADD29R,0.0720X0.0720*%
%ADD30C,0.0820*%
%ADD31R,0.0820X0.0820*%
%ADD32C,0.0780*%
%ADD33R,0.0780X0.0780*%
%ADD34C,0.0700*%
%ADD35O,0.0800X0.0600*%
%ADD36R,0.0800X0.0600*%
%ADD37C,0.0690*%
%ADD38R,0.0690X0.0690*%
%ADD39C,0.0650*%
%ADD40C,0.0950*%
%ADD41R,0.0950X0.0950*%
%ADD42C,0.0500*%
%ADD43C,0.0750*%
%ADD44R,0.0945X0.1260*%
%ADD45C,0.0670*%
%ADD46R,0.0670X0.0670*%
%ADD47C,0.0550*%
%ADD48C,0.0080*%
%ADD49C,0.0010*%
%ADD50C,0.0098*%
%ADD51C,0.0100*%
%ADD52C,0.1100*%
%ADD53C,0.1000*%
%ADD54C,0.1400*%
%ADD55C,0.1050*%
*
G04 Plot Data ***
*
G54D48*
G01X0126261Y3256840D02*
X0126205Y3256840D01*
X0126150D01*
X0126094Y3256840D01*
Y3256838D01*
X0126150Y3256838D01*
X0126205D01*
X0126261Y3256838D01*
Y3256840D01*
X0126316Y3256840D01*
X0126372D01*
X0126428Y3256840D01*
Y3256838D01*
X0126372Y3256838D01*
X0126316D01*
X0126261Y3256838D01*
X0127761Y3256761D02*
Y3256763D01*
X0127816Y3256763D01*
X0127872D01*
X0127927Y3256763D01*
Y3256761D01*
X0127872Y3256761D01*
X0127816D01*
X0127594Y3256762D01*
X0127816Y3256757D02*
X0127872D01*
X0127927Y3256758D01*
Y3256759D01*
X0127872Y3256759D01*
X0127594D01*
Y3256759D02*
Y3256758D01*
X0126428Y3256750D02*
Y3256748D01*
Y3256749D02*
X0126094D01*
X0126150Y3256748D01*
X0125552Y3256845D02*
X0125441D01*
X0125496D02*
Y3256849D01*
X0125441Y3256848D01*
X0141219Y3256983D02*
X0141330D01*
X0141274D02*
Y3256979D01*
X0141330Y3256980D01*
X0141573Y3256979D02*
Y3256982D01*
X0141601Y3256983D01*
X0141684Y3256981D01*
Y3256980D02*
Y3256981D01*
X0141768Y3256983D01*
X0141795Y3256982D01*
Y3256979D01*
X0141983Y3256980D02*
X0142011Y3256979D01*
X0142178D01*
X0142205Y3256980D01*
Y3256980D01*
X0142178Y3256981D01*
X0142011D01*
X0141983Y3256981D01*
Y3256982D01*
X0142011Y3256983D01*
X0142178D01*
X0142205Y3256982D01*
X0142533Y3256969D02*
X0142644D01*
X0142589D02*
Y3256966D01*
X0142644Y3256966D01*
X0123591Y3256873D02*
X0123646Y3256873D01*
X0123757D01*
X0123813Y3256873D01*
Y3256874D01*
X0123702Y3256875D01*
X0123813Y3256876D01*
X0123591D01*
X0123403Y3256873D02*
X0123375Y3256873D01*
X0123208D01*
X0123181Y3256873D01*
Y3256876D01*
X0123208Y3256876D01*
X0123375D01*
X0123403Y3256876D01*
X0137016Y3256987D02*
Y3256986D01*
X0136960Y3256985D01*
X0136905D01*
X0136849Y3256986D01*
Y3256987D01*
X0136905Y3256988D01*
X0136960D01*
X0137183Y3256986D01*
X0137016Y3256983D02*
X0137183Y3256983D01*
X0137016Y3256981D02*
Y3256983D01*
X0136960Y3256983D01*
X0136905D01*
X0136849Y3256983D01*
Y3256981D01*
X0137183D01*
X0123892Y3256858D02*
X0123669D01*
X0123780Y3256860D01*
X0123836D01*
Y3256857D01*
X0123482Y3256857D02*
X0123454Y3256857D01*
X0123287D01*
X0123259Y3256857D01*
Y3256859D01*
X0123287Y3256860D01*
X0123454D01*
X0123482Y3256859D01*
X0123137Y3256996D02*
X0123471Y3256994D01*
Y3256996D01*
X0123249Y3257000D02*
X0123193D01*
X0123137Y3257000D01*
Y3256999D01*
X0123193Y3256998D01*
X0123471D01*
Y3256998D02*
Y3256999D01*
X0124637Y3257005D02*
Y3257006D01*
Y3257006D02*
X0124970D01*
X0124915Y3257006D01*
X0140303Y3256920D02*
Y3256922D01*
X0140358Y3256922D01*
X0140414D01*
X0140470Y3256922D01*
Y3256920D01*
X0140414Y3256920D01*
X0140358D01*
X0140136Y3256921D01*
X0140470Y3256918D02*
Y3256917D01*
Y3256918D02*
X0140136D01*
X0140192Y3256917D01*
X0142460Y3257008D02*
X0142682D01*
X0142460Y3257006D01*
Y3257005D01*
X0142488Y3257005D01*
X0142654D01*
X0142682Y3257005D01*
X0142953Y3257006D02*
X0142870Y3257008D01*
X0143092Y3257006D02*
X0142925D01*
X0142870Y3257006D01*
Y3257005D01*
X0142925Y3257005D01*
X0143092D01*
Y3257008D01*
X0136700Y3256890D02*
X0136755Y3256890D01*
Y3256891D01*
X0136700Y3256892D01*
X0136644D01*
X0136533Y3256891D01*
X0136422Y3256892D01*
Y3256890D01*
X0136589Y3256887D02*
X0136755Y3256888D01*
X0136589Y3256886D02*
Y3256887D01*
X0136533Y3256888D01*
X0136477D01*
X0136422Y3256887D01*
Y3256886D01*
X0136755D01*
X0115444Y3256844D02*
X0115389Y3256844D01*
Y3256842D01*
X0115444Y3256842D01*
X0115555D01*
X0115611Y3256842D01*
Y3256844D01*
X0115722D01*
Y3256842D01*
X0115500Y3256848D02*
X0115444D01*
X0115389Y3256847D01*
Y3256846D01*
X0115444Y3256846D01*
X0115722D01*
Y3256846D02*
Y3256847D01*
X0116888Y3256853D02*
Y3256854D01*
Y3256854D02*
X0117222D01*
X0117166Y3256854D01*
X0116955Y3256841D02*
Y3256843D01*
X0117177Y3256842D01*
Y3256841D01*
X0116844D01*
X0116955Y3256847D02*
X0116900D01*
X0116844Y3256847D01*
Y3256846D01*
X0116900Y3256845D01*
X0117177D01*
Y3256845D02*
Y3256846D01*
X0118344Y3256852D02*
Y3256853D01*
Y3256853D02*
X0118677D01*
X0118622Y3256853D01*
X0141819Y3256762D02*
Y3256759D01*
X0141597Y3256762D01*
X0141541D01*
X0141486Y3256761D01*
Y3256760D01*
X0141541Y3256759D01*
X0141708Y3256755D02*
X0141764D01*
X0141819Y3256756D01*
Y3256757D01*
X0141764Y3256757D01*
X0141486D01*
Y3256757D02*
Y3256756D01*
X0140470Y3256747D02*
Y3256746D01*
Y3256747D02*
X0140136D01*
X0140192Y3256746D01*
X0141931Y3256912D02*
X0141987Y3256912D01*
X0142043Y3256912D01*
X0142154D01*
X0142209Y3256912D01*
X0142265Y3256912D01*
Y3256911D01*
X0142209Y3256910D01*
X0142154Y3256910D01*
X0142043D01*
X0141987Y3256910D01*
X0141931Y3256911D01*
Y3256912D01*
Y3256914D02*
Y3256915D01*
Y3256915D02*
X0142265D01*
X0142209Y3256915D01*
X0142043Y3256920D02*
X0141987D01*
X0141931Y3256919D01*
Y3256918D01*
X0141987Y3256918D01*
X0142265D01*
Y3256918D02*
Y3256919D01*
X0143281Y3256923D02*
Y3256924D01*
Y3256924D02*
X0143614D01*
X0143559Y3256924D01*
X0143392Y3256872D02*
Y3256875D01*
X0143614Y3256874D01*
Y3256873D01*
X0143281D01*
X0118551Y3256799D02*
Y3256797D01*
X0118329Y3256798D01*
Y3256799D01*
X0118662D01*
X0118495Y3256794D02*
X0118662Y3256795D01*
X0118495Y3256793D02*
Y3256795D01*
X0118440Y3256795D01*
X0118384D01*
X0118329Y3256795D01*
Y3256793D01*
X0118662D01*
X0124860Y3256798D02*
Y3256796D01*
X0124805Y3256796D01*
X0124749D01*
X0124693Y3256796D01*
Y3256798D01*
X0124749Y3256798D01*
X0124805D01*
X0125027Y3256797D01*
X0124860Y3256801D02*
X0124693Y3256800D01*
X0124860Y3256802D02*
Y3256800D01*
X0124916Y3256800D01*
X0124971D01*
X0125027Y3256800D01*
Y3256802D01*
X0124693D01*
X0120483Y3256781D02*
Y3256780D01*
Y3256781D02*
X0120149D01*
X0120205Y3256780D01*
X0120371Y3256777D02*
X0120483Y3256778D01*
X0120427Y3256776D02*
X0120483Y3256776D01*
Y3256777D01*
X0120427Y3256777D01*
X0120371Y3256778D01*
X0120205D01*
X0120149Y3256778D01*
Y3256776D01*
X0120205Y3256776D01*
X0120427D01*
X0117630Y3256805D02*
X0117574Y3256805D01*
Y3256803D01*
X0117630Y3256803D01*
X0117741D01*
X0117796Y3256803D01*
Y3256805D01*
X0117907D01*
Y3256803D01*
X0117741Y3256808D02*
X0117574Y3256807D01*
X0117741Y3256809D02*
Y3256807D01*
X0117796Y3256807D01*
X0117852D01*
X0117907Y3256807D01*
Y3256809D01*
X0117574D01*
X0118282Y3256765D02*
X0118615Y3256763D01*
Y3256765D01*
X0118449Y3256768D02*
X0118282Y3256767D01*
X0118449Y3256770D02*
Y3256768D01*
X0118504Y3256767D01*
X0118560D01*
X0118615Y3256768D01*
Y3256770D01*
X0118282D01*
X0117387Y3256764D02*
X0117442Y3256763D01*
X0117498D01*
X0117553Y3256764D01*
Y3256765D01*
X0117498Y3256765D01*
X0117442D01*
X0117387Y3256765D01*
Y3256764D01*
X0117331Y3256763D01*
X0117276D01*
X0117220Y3256764D01*
Y3256765D01*
X0117276Y3256765D01*
X0117331D01*
X0117387Y3256765D01*
Y3256768D02*
X0117220Y3256767D01*
X0117387Y3256770D02*
Y3256768D01*
X0117442Y3256767D01*
X0117498D01*
X0117553Y3256768D01*
Y3256770D01*
X0117220D01*
X0123030Y3256821D02*
Y3256823D01*
X0123252Y3256821D01*
X0123308D01*
X0123363Y3256821D01*
Y3256823D01*
X0123308Y3256823D01*
X0123141Y3256826D02*
X0123030Y3256825D01*
X0123086Y3256827D02*
X0123030Y3256827D01*
Y3256826D01*
X0123086Y3256826D01*
X0123141Y3256825D01*
X0123308D01*
X0123363Y3256825D01*
Y3256827D01*
X0123308Y3256827D01*
X0123086D01*
X0122163Y3256748D02*
X0122274D01*
X0122219D02*
Y3256744D01*
X0122274Y3256745D01*
X0122712Y3256748D02*
Y3256744D01*
X0122740Y3256748D02*
X0122573D01*
X0122518Y3256747D01*
Y3256746D01*
X0122573Y3256744D01*
X0122740D01*
X0120116Y3256945D02*
X0119893D01*
X0120116Y3256947D01*
Y3256948D01*
X0120088Y3256949D01*
X0119921D01*
X0119893Y3256948D01*
X0119706Y3256946D02*
X0119678Y3256945D01*
X0119511D01*
X0119483Y3256946D01*
Y3256948D01*
X0119511Y3256949D01*
X0119678D01*
X0119706Y3256948D01*
X0118880Y3256914D02*
X0118769D01*
X0118824D02*
Y3256917D01*
X0118769Y3256916D01*
X0118526Y3256914D02*
X0118498Y3256914D01*
X0118331D01*
X0118303Y3256914D01*
Y3256916D01*
X0118331Y3256917D01*
X0118498D01*
X0118526Y3256916D01*
X0118662Y3256975D02*
X0118551D01*
X0118606D02*
Y3256979D01*
X0118551Y3256978D01*
X0118307Y3256979D02*
Y3256976D01*
X0118279Y3256975D01*
X0118113D01*
X0118085Y3256976D01*
Y3256979D01*
X0127478Y3256902D02*
X0127534Y3256903D01*
Y3256904D01*
X0127478Y3256904D01*
X0127423D01*
X0127312Y3256903D01*
X0127201Y3256904D01*
Y3256902D01*
X0127423Y3256898D02*
X0127478D01*
X0127534Y3256899D01*
Y3256900D01*
X0127478Y3256900D01*
X0127201D01*
Y3256900D02*
Y3256899D01*
X0126034Y3256893D02*
Y3256892D01*
Y3256893D02*
X0125701D01*
X0125756Y3256892D01*
X0125868Y3256962D02*
Y3256963D01*
X0125923Y3256964D01*
X0125979D01*
X0126034Y3256963D01*
Y3256962D01*
X0125979Y3256961D01*
X0125923D01*
X0125701Y3256963D01*
X0135806Y3256965D02*
Y3256967D01*
X0136029Y3256965D01*
X0136084D01*
X0136140Y3256965D01*
Y3256967D01*
X0136084Y3256967D01*
X0136140Y3256969D02*
X0135862D01*
X0135806Y3256969D01*
Y3256971D01*
X0135862Y3256971D01*
X0136140D01*
X0136642Y3256759D02*
Y3256758D01*
Y3256758D02*
X0136309D01*
X0136364Y3256758D01*
X0136476Y3256754D02*
X0136642Y3256755D01*
X0136476Y3256753D02*
Y3256755D01*
X0136420Y3256755D01*
X0136364D01*
X0136309Y3256755D01*
Y3256753D01*
X0136642D01*
X0126406Y3256833D02*
X0126295D01*
X0126350D02*
Y3256836D01*
X0126295Y3256836D01*
X0125940Y3256833D02*
Y3256834D01*
X0126052Y3256836D02*
X0125968Y3256834D01*
X0125913D01*
X0125829Y3256836D01*
X0124799Y3256871D02*
X0122799D01*
Y3256861D02*
X0124799D01*
X0138115Y3256981D02*
Y3256999D01*
X0137365D01*
Y3256981D01*
X0138115D01*
X0137740Y3257001D02*
Y3256999D01*
Y3256979D02*
Y3256981D01*
X0124877Y3256855D02*
X0122877D01*
Y3256845D02*
X0124877D01*
X0125305Y3256981D02*
X0124305D01*
Y3257001D01*
X0125305D01*
Y3256981D01*
X0143099Y3257017D02*
X0141349D01*
Y3257010D01*
X0143099D01*
Y3257017D01*
X0141099Y3257013D02*
X0141349D01*
X0143349D02*
X0143099D01*
X0137688Y3256886D02*
Y3256903D01*
X0136938D01*
Y3256886D01*
X0137688D01*
X0137313Y3256906D02*
Y3256903D01*
Y3256883D02*
Y3256886D01*
X0117556Y3256829D02*
X0116556D01*
Y3256849D01*
X0117556D01*
Y3256829D01*
X0119011Y3256828D02*
X0118011D01*
Y3256848D01*
X0119011D01*
Y3256828D01*
X0142949Y3256884D02*
Y3256878D01*
X0143949D01*
Y3256919D01*
X0142949D01*
Y3256919D01*
Y3256914D01*
Y3256904D01*
Y3256894D01*
Y3256884D01*
X0119594Y3256793D02*
Y3256810D01*
X0118844D01*
Y3256793D01*
X0119594D01*
X0119219Y3256813D02*
Y3256810D01*
Y3256790D02*
Y3256793D01*
X0123761Y3256802D02*
Y3256785D01*
X0124511D01*
Y3256802D01*
X0123761D01*
X0124136Y3256782D02*
Y3256785D01*
Y3256805D02*
Y3256802D01*
X0122290Y3256778D02*
X0122282Y3256778D01*
X0121941Y3256776D01*
X0121540Y3256775D01*
X0121139Y3256776D01*
X0120798Y3256778D01*
X0120571Y3256781D01*
X0120491Y3256785D01*
X0120571Y3256789D01*
X0120798Y3256793D01*
X0121139Y3256795D01*
X0121540Y3256796D01*
X0121941Y3256795D01*
X0122282Y3256793D01*
Y3256778D01*
X0116642Y3256809D02*
Y3256791D01*
X0117392D01*
Y3256809D01*
X0116642D01*
X0117017Y3256789D02*
Y3256791D01*
Y3256811D02*
Y3256809D01*
X0117350Y3256770D02*
Y3256752D01*
X0118100D01*
Y3256770D01*
X0117350D01*
X0117725Y3256750D02*
Y3256752D01*
Y3256772D02*
Y3256770D01*
X0116288D02*
Y3256752D01*
X0117038D01*
Y3256770D01*
X0116288D01*
X0116663Y3256750D02*
Y3256752D01*
Y3256772D02*
Y3256770D01*
X0121223Y3256825D02*
X0121231Y3256825D01*
X0121572Y3256827D01*
X0121973Y3256828D01*
X0122374Y3256827D01*
X0122715Y3256825D01*
X0122942Y3256822D01*
X0123022Y3256818D01*
X0122942Y3256814D01*
X0122715Y3256810D01*
X0122374Y3256808D01*
X0121973Y3256807D01*
X0121572Y3256808D01*
X0121231Y3256810D01*
Y3256825D01*
X0123122Y3256764D02*
X0120122D01*
Y3256748D01*
X0123122D01*
Y3256764D01*
X0122622D02*
Y3256748D01*
X0123872Y3256756D02*
X0123122D01*
X0119372D02*
X0120122D01*
X0121101Y3256943D02*
X0119101D01*
Y3256933D02*
X0121101D01*
X0119921Y3256912D02*
X0117921D01*
Y3256902D02*
X0119921D01*
X0121297Y3256967D02*
X0117097D01*
Y3256973D02*
X0121297D01*
Y3256950D01*
X0117097D01*
Y3256973D01*
X0125367Y3256958D02*
X0126367D01*
Y3256898D01*
X0125367D01*
Y3256958D01*
X0137875Y3256748D02*
X0136875D01*
Y3256779D01*
X0137625D01*
Y3256775D01*
X0138875D01*
Y3256748D01*
X0125996Y3256864D02*
X0126996D01*
Y3256844D01*
X0125996D01*
Y3256864D01*
X0140039Y3256972D02*
Y3256962D01*
X0142139D01*
Y3256972D01*
X0141589D01*
X0140589D01*
X0140039D01*
X0131474Y3256975D02*
X0132474D01*
X0134474D01*
Y3256765D01*
X0129474D01*
Y3256975D01*
X0131474D01*
Y3256972D01*
X0132474D01*
Y3256975D01*
X0125760Y3256834D02*
X0126760D01*
Y3256754D01*
X0125760D01*
Y3256834D01*
X0140802Y3256912D02*
X0139802D01*
Y3256751D01*
X0140802D01*
Y3256757D01*
Y3256767D01*
Y3256777D01*
Y3256787D01*
Y3256797D01*
Y3256817D01*
Y3256837D01*
Y3256857D01*
Y3256877D01*
Y3256897D01*
Y3256912D01*
G54D49*
G01X0136329Y3256937D02*
X0136251D01*
X0142937Y3256953D02*
Y3256979D01*
X0144708D01*
Y3256953D01*
X0142937D01*
X0131061Y3257002D02*
X0126731D01*
Y3257026D01*
X0131061D01*
Y3257002D01*
X0123355Y3256995D02*
X0117450D01*
Y3257034D01*
X0123355D01*
Y3256995D01*
G54D50*
G01X0129201Y3256990D02*
X0128939D01*
X0128895Y3256991D01*
Y3256992D01*
X0128939Y3256993D01*
X0129201D01*
X0129245Y3256992D01*
Y3256991D01*
X0129070Y3256987D01*
X0128349Y3256989D02*
Y3256988D01*
X0128393Y3256987D01*
X0128568D01*
X0128611Y3256988D01*
Y3256993D01*
X0128655D02*
X0128480D01*
X0121440Y3256991D02*
X0121615D01*
X0121528D02*
Y3256986D01*
X0121615Y3256987D01*
X0122249Y3256989D02*
Y3256990D01*
X0122205Y3256991D01*
X0122030D01*
X0121987Y3256990D01*
Y3256986D01*
X0121943D02*
X0122118D01*
X0144227Y3256991D02*
X0144271Y3256992D01*
Y3256993D01*
X0144227Y3256994D01*
X0143964D01*
X0143921Y3256993D01*
Y3256992D01*
X0143964Y3256991D01*
X0144227D01*
X0144271Y3256990D01*
Y3256989D01*
X0144227Y3256989D01*
X0143964D01*
X0143921Y3256989D01*
Y3256990D01*
X0143964Y3256991D01*
X0143374Y3256990D02*
Y3256989D01*
X0143418Y3256989D01*
X0143593D01*
X0143637Y3256989D01*
Y3256994D01*
X0143680D02*
X0143505D01*
G54D51*
G01X0143277Y3257015D02*
X0142922D01*
X0143099Y3257019D01*
X0143188D01*
Y3257014D01*
X0142322Y3257014D02*
X0142411Y3257014D01*
X0142588D01*
X0142677Y3257014D01*
Y3257015D01*
X0142499Y3257017D01*
X0142677Y3257019D01*
X0142322D01*
X0119322Y3256857D02*
X0119411Y3256856D01*
X0119588D01*
X0119677Y3256857D01*
Y3256858D01*
X0119499Y3256860D01*
X0119677Y3256862D01*
X0119322D01*
X0118722Y3256857D02*
X0118811Y3256856D01*
X0118988D01*
X0119077Y3256857D01*
Y3256858D01*
X0118899Y3256860D01*
X0119077Y3256862D01*
X0118722D01*
X0143238Y3256856D02*
X0142882D01*
X0143238Y3256859D01*
Y3256860D01*
X0143193Y3256861D01*
X0142927D01*
X0142882Y3256860D01*
X0142282Y3256857D02*
X0142371Y3256856D01*
X0142549D01*
X0142638Y3256857D01*
Y3256858D01*
X0142460Y3256859D01*
X0142638Y3256861D01*
X0142282D01*
M02*
