*
G04 Mass Parameters ***
*
G04 Image ***
*
%IND:\SHECHEM\DOCUMENTS\ONEDRIVE\DOCUMENTS\SEMESTER 5\ELECTRONIC DESIGN REALIZATION\ORCAD\PCB_FINAL\SCHEMATIC 2_ADRIAN.AST*%
%ICAS*%
%MOIN*%
%IPPOS*%
%ASAXBY*%
G74*%FSLAN2X34Y34*%
*
G04 Aperture Definitions ***
*
%ADD10C,0.0550*%
%ADD11C,0.0520*%
%ADD12R,0.0520X0.0520*%
%ADD13R,0.0866X0.1180*%
%ADD14C,0.0620*%
%ADD15R,0.0620X0.0620*%
%ADD16C,0.0580*%
%ADD17R,0.0580X0.0580*%
%ADD18O,0.0600X0.0400*%
%ADD19R,0.0600X0.0400*%
%ADD20C,0.0490*%
%ADD21R,0.0490X0.0490*%
%ADD22C,0.0450*%
%ADD23C,0.0750*%
%ADD24R,0.0750X0.0750*%
%ADD25C,0.0500*%
%ADD26C,0.0315*%
%ADD27C,0.0197*%
%ADD28C,0.0720*%
%ADD29R,0.0720X0.0720*%
%ADD30C,0.0820*%
%ADD31R,0.0820X0.0820*%
%ADD32C,0.0780*%
%ADD33R,0.0780X0.0780*%
%ADD34C,0.0700*%
%ADD35O,0.0800X0.0600*%
%ADD36R,0.0800X0.0600*%
%ADD37C,0.0690*%
%ADD38R,0.0690X0.0690*%
%ADD39C,0.0650*%
%ADD40C,0.0950*%
%ADD41R,0.0950X0.0950*%
%ADD42C,0.0500*%
%ADD43C,0.0750*%
%ADD44R,0.0945X0.1260*%
%ADD45C,0.0670*%
%ADD46R,0.0670X0.0670*%
%ADD47C,0.0550*%
%ADD48C,0.0080*%
%ADD49C,0.0010*%
%ADD50C,0.0098*%
%ADD51C,0.0100*%
%ADD52C,0.1100*%
%ADD53C,0.1000*%
%ADD54C,0.1400*%
%ADD55C,0.1050*%
*
G04 Plot Data ***
*
G54D42*
G01X0114696Y3257042D02*
Y3256731D01*
X0146281D01*
Y3257043D01*
X0115758Y3257042D01*
X0114696D01*
G54D48*
G01X0127761Y3256761D02*
Y3256763D01*
X0127816Y3256763D01*
X0127872D01*
X0127927Y3256763D01*
Y3256761D01*
X0127872Y3256761D01*
X0127816D01*
X0127594Y3256762D01*
X0127816Y3256757D02*
X0127872D01*
X0127927Y3256758D01*
Y3256759D01*
X0127872Y3256759D01*
X0127594D01*
Y3256759D02*
Y3256758D01*
X0127261Y3256788D02*
X0127205Y3256788D01*
X0127150D01*
X0127094Y3256788D01*
Y3256786D01*
X0127150Y3256786D01*
X0127205D01*
X0127261Y3256786D01*
Y3256788D01*
X0127316Y3256788D01*
X0127372D01*
X0127428Y3256788D01*
Y3256786D01*
X0127372Y3256786D01*
X0127316D01*
X0127261Y3256786D01*
Y3256778D02*
X0127428Y3256779D01*
X0127261Y3256776D02*
Y3256778D01*
X0127205Y3256779D01*
X0127150D01*
X0127094Y3256778D01*
Y3256776D01*
X0127428D01*
X0127261Y3256774D02*
Y3256772D01*
X0127428Y3256775D02*
Y3256772D01*
X0127094D01*
Y3256775D01*
X0127428Y3256769D02*
X0127094D01*
X0127428Y3256768D02*
Y3256770D01*
X0127316Y3256770D01*
X0127205D01*
X0127094Y3256770D01*
Y3256768D01*
X0127316Y3256766D02*
Y3256764D01*
X0127428Y3256766D02*
X0127261D01*
X0127094Y3256766D01*
Y3256765D01*
X0127261Y3256764D01*
X0127428D01*
X0127261Y3256762D02*
Y3256760D01*
X0127428Y3256762D02*
Y3256760D01*
X0127094D01*
Y3256762D01*
X0127261Y3256758D02*
Y3256756D01*
X0127428Y3256758D02*
X0127094D01*
X0127428Y3256756D02*
X0127094D01*
X0126428Y3256750D02*
Y3256748D01*
Y3256749D02*
X0126094D01*
X0126150Y3256748D01*
X0125552Y3256845D02*
X0125441D01*
X0125496D02*
Y3256849D01*
X0125441Y3256848D01*
X0141219Y3256983D02*
X0141330D01*
X0141274D02*
Y3256979D01*
X0141330Y3256980D01*
X0141573Y3256979D02*
Y3256982D01*
X0141601Y3256983D01*
X0141684Y3256981D01*
Y3256980D02*
Y3256981D01*
X0141768Y3256983D01*
X0141795Y3256982D01*
Y3256979D01*
X0141983Y3256980D02*
X0142011Y3256979D01*
X0142178D01*
X0142205Y3256980D01*
Y3256980D01*
X0142178Y3256981D01*
X0142011D01*
X0141983Y3256981D01*
Y3256982D01*
X0142011Y3256983D01*
X0142178D01*
X0142205Y3256982D01*
X0138593Y3256978D02*
Y3256975D01*
X0138482D02*
X0138704D01*
X0138892Y3256975D02*
X0138920Y3256975D01*
X0139087D01*
X0139114Y3256975D01*
Y3256976D01*
X0139087Y3256976D01*
X0138920D01*
X0138892Y3256977D01*
Y3256977D01*
X0138920Y3256978D01*
X0139087D01*
X0139114Y3256977D01*
X0139524Y3256976D02*
X0139358D01*
X0139302Y3256976D01*
Y3256975D01*
X0139358Y3256975D01*
X0139524D01*
Y3256978D01*
X0139712Y3256975D02*
X0139740Y3256975D01*
X0139907D01*
X0139934Y3256975D01*
Y3256976D01*
X0139907Y3256976D01*
X0139740D01*
X0139712Y3256977D01*
Y3256977D01*
X0139740Y3256978D01*
X0139907D01*
X0139934Y3256977D01*
X0140122Y3256979D02*
X0140344D01*
X0140727Y3256978D02*
Y3256975D01*
X0140754Y3256978D02*
X0140588D01*
X0140532Y3256977D01*
Y3256977D01*
X0140560Y3256976D01*
X0140727D02*
X0140560D01*
X0140532Y3256976D01*
Y3256975D01*
X0140588Y3256975D01*
X0140754D01*
X0141164Y3256976D02*
X0140998D01*
X0140942Y3256976D01*
Y3256975D01*
X0140998Y3256975D01*
X0141164D01*
Y3256978D01*
X0141352Y3256979D02*
X0141574D01*
X0141762Y3256975D02*
Y3256977D01*
X0141790Y3256978D01*
X0141873Y3256976D01*
Y3256976D02*
Y3256976D01*
X0141957Y3256978D01*
X0141984Y3256977D01*
Y3256975D01*
X0142172Y3256975D02*
X0142200Y3256975D01*
X0142367D01*
X0142394Y3256975D01*
Y3256976D01*
X0142367Y3256976D01*
X0142200D01*
X0142172Y3256977D01*
Y3256977D01*
X0142200Y3256978D01*
X0142367D01*
X0142394Y3256977D01*
X0142533Y3256969D02*
X0142644D01*
X0142589D02*
Y3256966D01*
X0142644Y3256966D01*
X0123591Y3256873D02*
X0123646Y3256873D01*
X0123757D01*
X0123813Y3256873D01*
Y3256874D01*
X0123702Y3256875D01*
X0123813Y3256876D01*
X0123591D01*
X0123403Y3256873D02*
X0123375Y3256873D01*
X0123208D01*
X0123181Y3256873D01*
Y3256876D01*
X0123208Y3256876D01*
X0123375D01*
X0123403Y3256876D01*
X0124400Y3256857D02*
X0124233D01*
Y3256855D02*
Y3256859D01*
X0124455D01*
X0123823Y3256857D02*
X0123990D01*
X0124045Y3256858D01*
Y3256858D01*
X0123990Y3256859D01*
X0123823D01*
Y3256855D01*
X0123635D02*
X0123413D01*
X0123635Y3256858D01*
Y3256858D01*
X0123607Y3256859D01*
X0123441D01*
X0123413Y3256858D01*
X0123225Y3256855D02*
X0123003D01*
X0123225Y3256858D01*
Y3256858D01*
X0123197Y3256859D01*
X0123031D01*
X0123003Y3256858D01*
X0137266Y3256990D02*
Y3256988D01*
X0137210Y3256988D01*
X0137155D01*
X0137099Y3256988D01*
Y3256990D01*
X0137155Y3256990D01*
X0137210D01*
X0137433Y3256989D01*
X0137266Y3256985D02*
X0137433Y3256986D01*
X0137266Y3256984D02*
Y3256985D01*
X0137210Y3256986D01*
X0137155D01*
X0137099Y3256985D01*
Y3256984D01*
X0137433D01*
X0138539Y3256992D02*
X0138372Y3256990D01*
X0138205Y3256992D01*
Y3256990D02*
X0138539D01*
Y3256986D02*
X0138483Y3256986D01*
X0138427Y3256985D01*
X0138316D01*
X0138261Y3256986D01*
X0138205Y3256986D01*
Y3256987D01*
X0138261Y3256987D01*
X0138316Y3256988D01*
X0138427D01*
X0138483Y3256987D01*
X0138539Y3256987D01*
Y3256986D01*
Y3256984D02*
Y3256982D01*
Y3256983D02*
X0138205D01*
X0138261Y3256982D01*
X0123892Y3256858D02*
X0123669D01*
X0123780Y3256860D01*
X0123836D01*
Y3256857D01*
X0123482Y3256857D02*
X0123454Y3256857D01*
X0123287D01*
X0123259Y3256857D01*
Y3256859D01*
X0123287Y3256860D01*
X0123454D01*
X0123482Y3256859D01*
X0124478Y3256841D02*
X0124312D01*
Y3256839D02*
Y3256843D01*
X0124534D01*
X0123902Y3256841D02*
X0124068D01*
X0124124Y3256842D01*
Y3256842D01*
X0124068Y3256843D01*
X0123902D01*
Y3256839D01*
X0123714D02*
X0123492D01*
X0123714Y3256842D01*
Y3256842D01*
X0123686Y3256843D01*
X0123519D01*
X0123492Y3256842D01*
X0123304Y3256839D02*
X0123082D01*
X0123304Y3256842D01*
Y3256842D01*
X0123276Y3256843D01*
X0123109D01*
X0123082Y3256842D01*
X0123137Y3256996D02*
X0123471Y3256994D01*
Y3256996D01*
X0123249Y3257000D02*
X0123193D01*
X0123137Y3257000D01*
Y3256999D01*
X0123193Y3256998D01*
X0123471D01*
Y3256998D02*
Y3256999D01*
X0123637Y3256967D02*
Y3256969D01*
X0123859Y3256967D01*
X0123915D01*
X0123970Y3256967D01*
Y3256969D01*
X0123915Y3256969D01*
X0123804Y3256977D02*
X0123637Y3256976D01*
X0123804Y3256978D02*
Y3256977D01*
X0123859Y3256976D01*
X0123915D01*
X0123970Y3256977D01*
Y3256978D01*
X0123637D01*
X0123804Y3256981D02*
Y3256982D01*
X0123637Y3256980D02*
Y3256982D01*
X0123970D01*
Y3256980D01*
X0123637Y3256986D02*
X0123970D01*
X0123637Y3256987D02*
Y3256985D01*
X0123748Y3256984D01*
X0123859D01*
X0123970Y3256985D01*
Y3256987D01*
X0123748Y3256988D02*
Y3256991D01*
X0123637Y3256988D02*
X0123804D01*
X0123970Y3256989D01*
Y3256990D01*
X0123804Y3256991D01*
X0123637D01*
X0123804Y3256993D02*
Y3256995D01*
X0123637Y3256993D02*
Y3256995D01*
X0123970D01*
Y3256993D01*
X0123804Y3256997D02*
Y3256999D01*
X0123637Y3256997D02*
X0123970D01*
X0123637Y3256999D02*
X0123970D01*
X0124637Y3257005D02*
Y3257006D01*
Y3257006D02*
X0124970D01*
X0124915Y3257006D01*
X0140303Y3256920D02*
Y3256922D01*
X0140358Y3256922D01*
X0140414D01*
X0140470Y3256922D01*
Y3256920D01*
X0140414Y3256920D01*
X0140358D01*
X0140136Y3256921D01*
X0140470Y3256918D02*
Y3256917D01*
Y3256918D02*
X0140136D01*
X0140192Y3256917D01*
X0142210Y3257010D02*
X0142432D01*
X0142210Y3257008D01*
Y3257008D01*
X0142238Y3257007D01*
X0142404D01*
X0142432Y3257008D01*
X0142703Y3257009D02*
X0142620Y3257010D01*
X0142842Y3257009D02*
X0142675D01*
X0142620Y3257008D01*
Y3257008D01*
X0142675Y3257007D01*
X0142842D01*
Y3257010D01*
X0142443Y3257021D02*
X0142610Y3257020D01*
X0142443Y3257018D01*
X0142665D02*
Y3257021D01*
X0142853D02*
X0142964D01*
X0142909D02*
Y3257018D01*
X0142964Y3257019D01*
X0136950Y3256892D02*
X0137005Y3256893D01*
Y3256894D01*
X0136950Y3256894D01*
X0136894D01*
X0136783Y3256893D01*
X0136672Y3256894D01*
Y3256892D01*
X0136839Y3256890D02*
X0137005Y3256890D01*
X0136839Y3256888D02*
Y3256890D01*
X0136783Y3256890D01*
X0136727D01*
X0136672Y3256890D01*
Y3256888D01*
X0137005D01*
X0138111Y3256892D02*
X0137945Y3256890D01*
X0137778Y3256892D01*
Y3256890D02*
X0138111D01*
Y3256888D02*
Y3256887D01*
Y3256888D02*
X0137778D01*
X0137833Y3256887D01*
X0115444Y3256844D02*
X0115389Y3256844D01*
Y3256842D01*
X0115444Y3256842D01*
X0115555D01*
X0115611Y3256842D01*
Y3256844D01*
X0115722D01*
Y3256842D01*
X0115500Y3256848D02*
X0115444D01*
X0115389Y3256847D01*
Y3256846D01*
X0115444Y3256846D01*
X0115722D01*
Y3256846D02*
Y3256847D01*
X0115888Y3256814D02*
Y3256817D01*
X0116111Y3256814D01*
X0116166D01*
X0116222Y3256815D01*
Y3256816D01*
X0116166Y3256817D01*
X0116055Y3256825D02*
X0115888Y3256824D01*
X0116055Y3256826D02*
Y3256824D01*
X0116111Y3256824D01*
X0116166D01*
X0116222Y3256824D01*
Y3256826D01*
X0115888D01*
X0116055Y3256829D02*
Y3256830D01*
X0115888Y3256828D02*
Y3256830D01*
X0116222D01*
Y3256828D01*
X0115888Y3256834D02*
X0116222D01*
X0115888Y3256834D02*
Y3256833D01*
X0116000Y3256832D01*
X0116111D01*
X0116222Y3256833D01*
Y3256834D01*
X0116000Y3256836D02*
Y3256838D01*
X0115888Y3256836D02*
X0116055D01*
X0116222Y3256837D01*
Y3256838D01*
X0116055Y3256838D01*
X0115888D01*
X0116055Y3256841D02*
Y3256843D01*
X0115888Y3256840D02*
Y3256843D01*
X0116222D01*
Y3256840D01*
X0116055Y3256844D02*
Y3256847D01*
X0115888Y3256844D02*
X0116222D01*
X0115888Y3256847D02*
X0116222D01*
X0116888Y3256853D02*
Y3256854D01*
Y3256854D02*
X0117222D01*
X0117166Y3256854D01*
X0116955Y3256841D02*
Y3256843D01*
X0117177Y3256842D01*
Y3256841D01*
X0116844D01*
X0116955Y3256847D02*
X0116900D01*
X0116844Y3256847D01*
Y3256846D01*
X0116900Y3256845D01*
X0117177D01*
Y3256845D02*
Y3256846D01*
X0117344Y3256814D02*
Y3256816D01*
X0117566Y3256814D01*
X0117622D01*
X0117677Y3256814D01*
Y3256816D01*
X0117622Y3256816D01*
X0117510Y3256824D02*
X0117344Y3256823D01*
X0117510Y3256825D02*
Y3256824D01*
X0117566Y3256823D01*
X0117622D01*
X0117677Y3256824D01*
Y3256825D01*
X0117344D01*
X0117510Y3256828D02*
Y3256829D01*
X0117344Y3256827D02*
Y3256829D01*
X0117677D01*
Y3256827D01*
X0117344Y3256833D02*
X0117677D01*
X0117344Y3256834D02*
Y3256832D01*
X0117455Y3256831D01*
X0117566D01*
X0117677Y3256832D01*
Y3256834D01*
X0117455Y3256835D02*
Y3256838D01*
X0117344Y3256835D02*
X0117510D01*
X0117677Y3256836D01*
Y3256837D01*
X0117510Y3256838D01*
X0117344D01*
X0117510Y3256840D02*
Y3256842D01*
X0117344Y3256840D02*
Y3256842D01*
X0117677D01*
Y3256840D01*
X0117510Y3256844D02*
Y3256846D01*
X0117344Y3256844D02*
X0117677D01*
X0117344Y3256846D02*
X0117677D01*
X0118344Y3256852D02*
Y3256853D01*
Y3256853D02*
X0118677D01*
X0118622Y3256853D01*
X0141819Y3256762D02*
Y3256759D01*
X0141597Y3256762D01*
X0141541D01*
X0141486Y3256761D01*
Y3256760D01*
X0141541Y3256759D01*
X0141708Y3256755D02*
X0141764D01*
X0141819Y3256756D01*
Y3256757D01*
X0141764Y3256757D01*
X0141486D01*
Y3256757D02*
Y3256756D01*
X0141370Y3256788D02*
X0141314Y3256787D01*
X0141258Y3256787D01*
X0141147D01*
X0141092Y3256787D01*
X0141036Y3256788D01*
Y3256788D01*
X0141092Y3256789D01*
X0141147Y3256789D01*
X0141258D01*
X0141314Y3256789D01*
X0141370Y3256788D01*
Y3256788D01*
Y3256785D02*
Y3256784D01*
Y3256785D02*
X0141036D01*
X0141092Y3256784D01*
X0141203Y3256775D02*
X0141370Y3256776D01*
X0141203Y3256774D02*
Y3256776D01*
X0141147Y3256776D01*
X0141092D01*
X0141036Y3256776D01*
Y3256774D01*
X0141370D01*
X0141203Y3256772D02*
Y3256770D01*
X0141370Y3256772D02*
Y3256770D01*
X0141036D01*
Y3256772D01*
X0141370Y3256766D02*
X0141036D01*
X0141370Y3256766D02*
Y3256768D01*
X0141258Y3256768D01*
X0141147D01*
X0141036Y3256768D01*
Y3256766D01*
X0141258Y3256764D02*
Y3256762D01*
X0141370Y3256764D02*
X0141203D01*
X0141036Y3256763D01*
Y3256763D01*
X0141203Y3256762D01*
X0141370D01*
X0141203Y3256759D02*
Y3256758D01*
X0141370Y3256760D02*
Y3256758D01*
X0141036D01*
Y3256760D01*
X0141203Y3256756D02*
Y3256754D01*
X0141370Y3256756D02*
X0141036D01*
X0141370Y3256754D02*
X0141036D01*
X0140470Y3256747D02*
Y3256746D01*
Y3256747D02*
X0140136D01*
X0140192Y3256746D01*
X0141931Y3256912D02*
X0141987Y3256912D01*
X0142043Y3256912D01*
X0142154D01*
X0142209Y3256912D01*
X0142265Y3256912D01*
Y3256911D01*
X0142209Y3256910D01*
X0142154Y3256910D01*
X0142043D01*
X0141987Y3256910D01*
X0141931Y3256911D01*
Y3256912D01*
Y3256914D02*
Y3256915D01*
Y3256915D02*
X0142265D01*
X0142209Y3256915D01*
X0142043Y3256920D02*
X0141987D01*
X0141931Y3256919D01*
Y3256918D01*
X0141987Y3256918D01*
X0142265D01*
Y3256918D02*
Y3256919D01*
X0142492Y3256889D02*
Y3256892D01*
X0142714Y3256891D01*
Y3256890D01*
X0142381D01*
X0142548Y3256900D02*
X0142381Y3256899D01*
X0142548Y3256901D02*
Y3256899D01*
X0142603Y3256899D01*
X0142659D01*
X0142714Y3256899D01*
Y3256901D01*
X0142381D01*
X0142548Y3256904D02*
Y3256905D01*
X0142381Y3256903D02*
Y3256905D01*
X0142714D01*
Y3256903D01*
X0142381Y3256909D02*
X0142714D01*
X0142381Y3256909D02*
Y3256908D01*
X0142492Y3256907D01*
X0142603D01*
X0142714Y3256908D01*
Y3256909D01*
X0142492Y3256911D02*
Y3256913D01*
X0142381Y3256911D02*
X0142548D01*
X0142714Y3256912D01*
Y3256913D01*
X0142548Y3256913D01*
X0142381D01*
X0142548Y3256916D02*
Y3256918D01*
X0142381Y3256915D02*
Y3256918D01*
X0142714D01*
Y3256915D01*
X0142548Y3256919D02*
Y3256922D01*
X0142381Y3256919D02*
X0142714D01*
X0142381Y3256922D02*
X0142714D01*
X0143281Y3256923D02*
Y3256924D01*
Y3256924D02*
X0143614D01*
X0143559Y3256924D01*
X0143392Y3256872D02*
Y3256875D01*
X0143614Y3256874D01*
Y3256873D01*
X0143281D01*
X0118801Y3256802D02*
Y3256799D01*
X0118579Y3256801D01*
Y3256801D01*
X0118912D01*
X0118745Y3256797D02*
X0118912Y3256798D01*
X0118745Y3256795D02*
Y3256797D01*
X0118690Y3256798D01*
X0118634D01*
X0118579Y3256797D01*
Y3256795D01*
X0118912D01*
X0120018Y3256803D02*
X0119962Y3256802D01*
X0119907Y3256802D01*
X0119796D01*
X0119740Y3256802D01*
X0119685Y3256803D01*
Y3256803D01*
X0119740Y3256804D01*
X0119796Y3256804D01*
X0119907D01*
X0119962Y3256804D01*
X0120018Y3256803D01*
Y3256803D01*
X0119851Y3256800D02*
X0119796Y3256800D01*
X0119740D01*
X0119685Y3256800D01*
Y3256798D01*
X0119740Y3256798D01*
X0119796D01*
X0119851Y3256798D01*
Y3256800D01*
X0119907Y3256800D01*
X0119962D01*
X0120018Y3256800D01*
Y3256798D01*
X0119962Y3256798D01*
X0119907D01*
X0119851Y3256798D01*
Y3256794D02*
Y3256796D01*
X0119907Y3256796D01*
X0119962D01*
X0120018Y3256796D01*
Y3256794D01*
X0119962Y3256794D01*
X0119907D01*
X0119685Y3256795D01*
X0124610Y3256795D02*
Y3256793D01*
X0124555Y3256793D01*
X0124499D01*
X0124443Y3256793D01*
Y3256795D01*
X0124499Y3256795D01*
X0124555D01*
X0124777Y3256794D01*
X0124610Y3256798D02*
X0124443Y3256797D01*
X0124610Y3256799D02*
Y3256798D01*
X0124666Y3256797D01*
X0124721D01*
X0124777Y3256798D01*
Y3256799D01*
X0124443D01*
X0123337Y3256791D02*
X0123504Y3256792D01*
X0123671Y3256791D01*
Y3256793D02*
X0123337D01*
Y3256796D02*
X0123393Y3256797D01*
X0123449Y3256797D01*
X0123560D01*
X0123615Y3256797D01*
X0123671Y3256796D01*
Y3256796D01*
X0123615Y3256795D01*
X0123560Y3256795D01*
X0123449D01*
X0123393Y3256795D01*
X0123337Y3256796D01*
Y3256796D01*
X0123393Y3256801D02*
X0123337Y3256801D01*
Y3256800D01*
X0123393Y3256799D01*
X0123449D01*
X0123560Y3256800D01*
X0123671Y3256799D01*
Y3256801D01*
X0120983Y3256784D02*
Y3256783D01*
Y3256783D02*
X0120649D01*
X0120705Y3256783D01*
X0120871Y3256779D02*
X0120983Y3256780D01*
X0120927Y3256778D02*
X0120983Y3256778D01*
Y3256780D01*
X0120927Y3256780D01*
X0120871Y3256780D01*
X0120705D01*
X0120649Y3256780D01*
Y3256778D01*
X0120705Y3256778D01*
X0120927D01*
X0122696Y3256800D02*
Y3256798D01*
X0122808Y3256800D02*
X0122641D01*
X0122474Y3256799D01*
Y3256799D01*
X0122641Y3256798D01*
X0122808D01*
Y3256794D02*
X0122474Y3256796D01*
Y3256794D01*
X0122696Y3256792D02*
Y3256790D01*
X0122474Y3256791D01*
Y3256791D01*
X0122808D01*
X0122752Y3256785D02*
X0122808Y3256786D01*
Y3256787D01*
X0122752Y3256788D01*
X0122641D01*
X0122585Y3256787D01*
Y3256785D01*
X0122474D01*
Y3256788D01*
X0122752Y3256784D02*
X0122808Y3256783D01*
Y3256782D01*
X0122752Y3256781D01*
X0122530D01*
X0122474Y3256782D01*
Y3256783D01*
X0122530Y3256784D01*
X0122808Y3256778D02*
X0122474D01*
X0122808Y3256777D02*
Y3256779D01*
X0122752Y3256779D01*
X0122696D01*
X0122641Y3256779D01*
Y3256778D02*
Y3256779D01*
X0122585Y3256779D01*
X0122530D01*
X0122474Y3256779D01*
Y3256777D01*
X0117380Y3256802D02*
X0117324Y3256802D01*
Y3256800D01*
X0117380Y3256800D01*
X0117491D01*
X0117546Y3256801D01*
Y3256802D01*
X0117657D01*
Y3256800D01*
X0117491Y3256805D02*
X0117324Y3256804D01*
X0117491Y3256806D02*
Y3256805D01*
X0117546Y3256804D01*
X0117602D01*
X0117657Y3256805D01*
Y3256806D01*
X0117324D01*
X0116218Y3256799D02*
X0116274Y3256800D01*
X0116329Y3256800D01*
X0116440D01*
X0116496Y3256800D01*
X0116551Y3256799D01*
Y3256799D01*
X0116496Y3256798D01*
X0116440Y3256798D01*
X0116329D01*
X0116274Y3256798D01*
X0116218Y3256799D01*
Y3256799D01*
X0116385Y3256802D02*
X0116440Y3256802D01*
X0116496D01*
X0116551Y3256802D01*
Y3256804D01*
X0116496Y3256804D01*
X0116440D01*
X0116385Y3256804D01*
Y3256802D01*
X0116329Y3256802D01*
X0116274D01*
X0116218Y3256802D01*
Y3256804D01*
X0116274Y3256804D01*
X0116329D01*
X0116385Y3256804D01*
Y3256808D02*
Y3256806D01*
X0116329Y3256806D01*
X0116274D01*
X0116218Y3256806D01*
Y3256808D01*
X0116274Y3256808D01*
X0116329D01*
X0116551Y3256807D01*
X0118032Y3256762D02*
X0118365Y3256761D01*
Y3256763D01*
X0118199Y3256766D02*
X0118032Y3256765D01*
X0118199Y3256767D02*
Y3256765D01*
X0118254Y3256765D01*
X0118310D01*
X0118365Y3256765D01*
Y3256767D01*
X0118032D01*
X0116926Y3256758D02*
X0117093Y3256760D01*
X0117259Y3256758D01*
Y3256761D02*
X0116926D01*
X0117093Y3256763D02*
Y3256764D01*
X0117148Y3256765D01*
X0117204D01*
X0117259Y3256764D01*
Y3256763D01*
X0117204Y3256763D01*
X0117148D01*
X0116926Y3256764D01*
X0116982Y3256769D02*
X0116926Y3256768D01*
Y3256767D01*
X0116982Y3256767D01*
X0117037D01*
X0117148Y3256768D01*
X0117259Y3256767D01*
Y3256769D01*
X0117137Y3256761D02*
X0117192Y3256761D01*
X0117248D01*
X0117303Y3256761D01*
Y3256763D01*
X0117248Y3256763D01*
X0117192D01*
X0117137Y3256763D01*
Y3256761D01*
X0117081Y3256761D01*
X0117026D01*
X0116970Y3256761D01*
Y3256763D01*
X0117026Y3256763D01*
X0117081D01*
X0117137Y3256763D01*
Y3256766D02*
X0116970Y3256765D01*
X0117137Y3256767D02*
Y3256765D01*
X0117192Y3256765D01*
X0117248D01*
X0117303Y3256765D01*
Y3256767D01*
X0116970D01*
X0115864Y3256755D02*
X0116031Y3256757D01*
X0116197Y3256755D01*
Y3256758D02*
X0115864D01*
X0115920Y3256762D02*
X0115864Y3256761D01*
Y3256760D01*
X0115920Y3256760D01*
X0116031D01*
X0116086Y3256760D01*
Y3256762D01*
X0116197D01*
Y3256760D01*
X0115864Y3256764D02*
Y3256764D01*
X0115920D01*
Y3256764D01*
X0115864D01*
Y3256768D02*
X0116197Y3256767D01*
Y3256769D01*
X0122530Y3256819D02*
Y3256821D01*
X0122752Y3256819D01*
X0122808D01*
X0122863Y3256819D01*
Y3256820D01*
X0122808Y3256821D01*
X0122641Y3256824D02*
X0122530Y3256823D01*
X0122586Y3256825D02*
X0122530Y3256825D01*
Y3256823D01*
X0122586Y3256823D01*
X0122641Y3256823D01*
X0122808D01*
X0122863Y3256823D01*
Y3256825D01*
X0122808Y3256825D01*
X0122586D01*
X0120816Y3256803D02*
Y3256805D01*
X0120705Y3256803D02*
X0120872D01*
X0121038Y3256804D01*
Y3256804D01*
X0120872Y3256805D01*
X0120705D01*
Y3256809D02*
X0121038Y3256807D01*
Y3256809D01*
X0120816Y3256811D02*
Y3256813D01*
X0121038Y3256812D01*
Y3256812D01*
X0120705D01*
X0120761Y3256817D02*
X0120705Y3256817D01*
Y3256816D01*
X0120761Y3256815D01*
X0120872D01*
X0120927Y3256816D01*
Y3256817D01*
X0121038D01*
Y3256815D01*
X0120761Y3256819D02*
X0120705Y3256820D01*
Y3256821D01*
X0120761Y3256822D01*
X0120983D01*
X0121038Y3256821D01*
Y3256820D01*
X0120983Y3256819D01*
X0120705Y3256825D02*
X0121038D01*
X0120705Y3256826D02*
Y3256824D01*
X0120761Y3256823D01*
X0120816D01*
X0120872Y3256824D01*
Y3256825D02*
Y3256824D01*
X0120927Y3256823D01*
X0120983D01*
X0121038Y3256824D01*
Y3256826D01*
X0121663Y3256750D02*
X0121774D01*
X0121719D02*
Y3256747D01*
X0121774Y3256747D01*
X0122212Y3256750D02*
Y3256747D01*
X0122240Y3256750D02*
X0122073D01*
X0122018Y3256749D01*
Y3256748D01*
X0122073Y3256747D01*
X0122240D01*
X0119791Y3256764D02*
X0120013D01*
X0119791Y3256765D02*
Y3256763D01*
X0119874Y3256762D01*
X0119930D01*
X0120013Y3256763D01*
Y3256765D01*
X0120340D02*
X0120396Y3256765D01*
X0120423Y3256764D01*
Y3256763D01*
X0120396Y3256762D01*
X0120340Y3256762D01*
X0120284D01*
X0120229Y3256762D01*
X0120201Y3256763D01*
Y3256764D01*
X0120229Y3256765D01*
X0120284Y3256765D01*
X0120340D01*
X0120611Y3256764D02*
X0120833D01*
X0120722Y3256762D01*
X0120667D01*
Y3256765D01*
X0121188D02*
X0121021Y3256762D01*
X0121243D01*
X0121431Y3256764D02*
X0121653D01*
X0121542Y3256762D01*
X0121487D01*
Y3256765D01*
X0121841Y3256762D02*
Y3256765D01*
X0121897Y3256765D01*
X0122008Y3256762D01*
X0122063Y3256762D01*
Y3256765D01*
X0122251D02*
X0122362D01*
X0122307D02*
Y3256762D01*
X0122362Y3256762D01*
X0120116Y3256945D02*
X0119893D01*
X0120116Y3256947D01*
Y3256948D01*
X0120088Y3256949D01*
X0119921D01*
X0119893Y3256948D01*
X0119706Y3256946D02*
X0119678Y3256945D01*
X0119511D01*
X0119483Y3256946D01*
Y3256948D01*
X0119511Y3256949D01*
X0119678D01*
X0119706Y3256948D01*
X0121411Y3256930D02*
X0121244D01*
Y3256928D02*
Y3256931D01*
X0121467D01*
X0121057D02*
Y3256928D01*
X0121029Y3256928D01*
X0120862D01*
X0120834Y3256928D01*
Y3256931D01*
X0120424Y3256928D02*
X0120480Y3256928D01*
X0120591D01*
X0120647Y3256928D01*
Y3256929D01*
X0120535Y3256930D01*
X0120647Y3256931D01*
X0120424D01*
X0120014Y3256928D02*
X0120070Y3256928D01*
X0120181D01*
X0120237Y3256928D01*
Y3256929D01*
X0120125Y3256930D01*
X0120237Y3256931D01*
X0120014D01*
X0119771Y3256928D02*
X0119827D01*
Y3256928D01*
X0119771D01*
Y3256928D01*
X0119389D02*
X0119333Y3256928D01*
X0119306Y3256929D01*
Y3256930D01*
X0119333Y3256931D01*
X0119389Y3256931D01*
X0119445D01*
X0119500Y3256931D01*
X0119528Y3256930D01*
Y3256929D01*
X0119500Y3256928D01*
X0119445Y3256928D01*
X0119389D01*
X0118880Y3256914D02*
X0118769D01*
X0118824D02*
Y3256917D01*
X0118769Y3256916D01*
X0118526Y3256914D02*
X0118498Y3256914D01*
X0118331D01*
X0118303Y3256914D01*
Y3256916D01*
X0118331Y3256917D01*
X0118498D01*
X0118526Y3256916D01*
X0120231Y3256898D02*
X0120064D01*
Y3256896D02*
Y3256900D01*
X0120287D01*
X0119877D02*
Y3256897D01*
X0119849Y3256896D01*
X0119682D01*
X0119654Y3256897D01*
Y3256900D01*
X0119244Y3256897D02*
X0119300Y3256896D01*
X0119411D01*
X0119467Y3256897D01*
Y3256898D01*
X0119355Y3256899D01*
X0119467Y3256900D01*
X0119244D01*
X0118834Y3256897D02*
X0118890Y3256896D01*
X0119001D01*
X0119057Y3256897D01*
Y3256898D01*
X0118945Y3256899D01*
X0119057Y3256900D01*
X0118834D01*
X0118591Y3256896D02*
X0118647D01*
Y3256897D01*
X0118591D01*
Y3256896D01*
X0118209D02*
X0118153Y3256897D01*
X0118126Y3256898D01*
Y3256899D01*
X0118153Y3256899D01*
X0118209Y3256900D01*
X0118265D01*
X0118320Y3256899D01*
X0118348Y3256899D01*
Y3256898D01*
X0118320Y3256897D01*
X0118265Y3256896D01*
X0118209D01*
X0119161Y3256953D02*
X0119050D01*
X0119106D02*
Y3256956D01*
X0119050Y3256956D01*
X0118807Y3256956D02*
Y3256954D01*
X0118779Y3256953D01*
X0118612D01*
X0118585Y3256954D01*
Y3256956D01*
X0121080Y3256970D02*
X0121052Y3256970D01*
X0120886D01*
X0120858Y3256970D01*
Y3256973D01*
X0120886Y3256973D01*
X0121052D01*
X0121080Y3256973D01*
X0120448Y3256970D02*
X0120476Y3256970D01*
X0120642D01*
X0120670Y3256970D01*
Y3256971D01*
X0120615Y3256972D01*
X0120448D01*
Y3256973D01*
X0120670D01*
X0120121Y3256970D02*
X0120066Y3256970D01*
X0120038Y3256971D01*
Y3256972D01*
X0120066Y3256973D01*
X0120121Y3256973D01*
X0120177D01*
X0120232Y3256973D01*
X0120260Y3256972D01*
Y3256971D01*
X0120232Y3256970D01*
X0120177Y3256970D01*
X0120121D01*
X0119822Y3256971D02*
X0119850Y3256972D01*
Y3256973D01*
X0119822Y3256973D01*
X0119656D01*
X0119628Y3256973D01*
Y3256972D01*
X0119656Y3256971D01*
X0119822D01*
X0119850Y3256971D01*
Y3256970D01*
X0119822Y3256970D01*
X0119656D01*
X0119628Y3256970D01*
Y3256971D01*
X0119656Y3256971D01*
X0119274Y3256970D02*
X0119440Y3256973D01*
X0119218D01*
X0119030Y3256970D02*
Y3256973D01*
X0118975Y3256973D01*
X0118919Y3256971D01*
X0118864Y3256973D01*
X0118808Y3256973D01*
Y3256970D01*
X0118620D02*
X0118426D01*
Y3256973D01*
X0127478Y3256902D02*
X0127534Y3256903D01*
Y3256904D01*
X0127478Y3256904D01*
X0127423D01*
X0127312Y3256903D01*
X0127201Y3256904D01*
Y3256902D01*
X0127423Y3256898D02*
X0127478D01*
X0127534Y3256899D01*
Y3256900D01*
X0127478Y3256900D01*
X0127201D01*
Y3256900D02*
Y3256899D01*
X0126868Y3256927D02*
Y3256929D01*
X0126923Y3256929D01*
X0126979D01*
X0127034Y3256929D01*
Y3256927D01*
X0126979Y3256927D01*
X0126923D01*
X0126701Y3256928D01*
X0126868Y3256919D02*
X0127034Y3256920D01*
X0126868Y3256918D02*
Y3256919D01*
X0126812Y3256920D01*
X0126756D01*
X0126701Y3256919D01*
Y3256918D01*
X0127034D01*
X0126868Y3256915D02*
Y3256913D01*
X0127034Y3256916D02*
Y3256913D01*
X0126701D01*
Y3256916D01*
X0127034Y3256910D02*
X0126701D01*
X0127034Y3256909D02*
Y3256911D01*
X0126923Y3256912D01*
X0126812D01*
X0126701Y3256911D01*
Y3256909D01*
X0126923Y3256907D02*
Y3256905D01*
X0127034Y3256907D02*
X0126868D01*
X0126701Y3256907D01*
Y3256906D01*
X0126868Y3256905D01*
X0127034D01*
X0126868Y3256903D02*
Y3256901D01*
X0127034Y3256903D02*
Y3256901D01*
X0126701D01*
Y3256903D01*
X0126868Y3256899D02*
Y3256897D01*
X0127034Y3256899D02*
X0126701D01*
X0127034Y3256897D02*
X0126701D01*
X0126034Y3256893D02*
Y3256892D01*
Y3256893D02*
X0125701D01*
X0125756Y3256892D01*
X0125868Y3256962D02*
Y3256963D01*
X0125923Y3256964D01*
X0125979D01*
X0126034Y3256963D01*
Y3256962D01*
X0125979Y3256961D01*
X0125923D01*
X0125701Y3256963D01*
X0132306Y3256870D02*
Y3256872D01*
X0132529Y3256870D01*
X0132584D01*
X0132640Y3256870D01*
Y3256872D01*
X0132584Y3256872D01*
X0132640Y3256874D02*
X0132362D01*
X0132306Y3256874D01*
Y3256876D01*
X0132362Y3256876D01*
X0132640D01*
X0131640Y3256830D02*
X0131362D01*
X0131306Y3256831D01*
Y3256832D01*
X0131362Y3256833D01*
X0131640D01*
X0131473Y3256837D02*
Y3256835D01*
X0131529Y3256834D01*
X0131584D01*
X0131640Y3256835D01*
Y3256837D01*
X0131306D01*
X0131473Y3256839D02*
Y3256841D01*
X0131418Y3256843D02*
Y3256845D01*
X0131306Y3256843D02*
X0131473D01*
X0131640Y3256843D01*
Y3256844D01*
X0131473Y3256845D01*
X0131306D01*
Y3256847D02*
Y3256849D01*
X0131529Y3256847D01*
X0131584D01*
X0131640Y3256847D01*
Y3256849D01*
X0131584Y3256849D01*
X0131362Y3256853D02*
X0131306Y3256853D01*
Y3256851D01*
X0131362Y3256851D01*
X0131418D01*
X0131529Y3256852D01*
X0131640Y3256851D01*
Y3256853D01*
X0131418Y3256855D02*
Y3256857D01*
X0131306Y3256855D02*
X0131473D01*
X0131640Y3256856D01*
Y3256856D01*
X0131473Y3256857D01*
X0131306D01*
X0131473Y3256860D02*
Y3256859D01*
X0131362D01*
X0131306Y3256859D01*
Y3256861D01*
X0131362Y3256861D01*
X0131584D01*
X0131640Y3256861D01*
Y3256859D01*
X0131584Y3256859D01*
X0131473Y3256864D02*
Y3256865D01*
X0131306Y3256863D02*
Y3256865D01*
X0131640D01*
Y3256863D01*
X0131306Y3256867D02*
X0131640D01*
X0131584Y3256868D01*
X0131473Y3256868D01*
X0131584Y3256869D01*
X0131640Y3256869D01*
X0131306D01*
Y3256872D02*
X0131640D01*
Y3256871D02*
Y3256874D01*
X0131418Y3256875D02*
Y3256878D01*
X0131306Y3256875D02*
X0131473D01*
X0131640Y3256876D01*
Y3256877D01*
X0131473Y3256878D01*
X0131306D01*
X0137392Y3256761D02*
Y3256760D01*
Y3256761D02*
X0137059D01*
X0137114Y3256760D01*
X0137226Y3256757D02*
X0137392Y3256758D01*
X0137226Y3256755D02*
Y3256757D01*
X0137170Y3256758D01*
X0137114D01*
X0137059Y3256757D01*
Y3256755D01*
X0137392D01*
X0138667Y3256760D02*
X0138501Y3256758D01*
X0138334Y3256760D01*
Y3256758D02*
X0138667D01*
Y3256756D02*
Y3256755D01*
Y3256755D02*
X0138334D01*
X0138389Y3256755D01*
X0126406Y3256833D02*
X0126295D01*
X0126350D02*
Y3256836D01*
X0126295Y3256836D01*
X0125940Y3256833D02*
Y3256834D01*
X0126052Y3256836D02*
X0125968Y3256834D01*
X0125913D01*
X0125829Y3256836D01*
X0128345Y3256838D02*
X0128150D01*
Y3256841D01*
X0127963Y3256839D02*
X0127740D01*
X0127963Y3256838D02*
Y3256839D01*
X0127879Y3256841D01*
X0127824D01*
X0127740Y3256839D01*
Y3256838D01*
X0127441D02*
Y3256841D01*
X0127553D02*
X0127330D01*
X0127143Y3256841D02*
X0127115Y3256841D01*
X0126948D01*
X0126920Y3256841D01*
Y3256840D01*
X0126948Y3256839D01*
X0127115D01*
X0127143Y3256839D01*
Y3256838D01*
X0127115Y3256838D01*
X0126948D01*
X0126920Y3256838D01*
X0126621Y3256838D02*
Y3256839D01*
X0126733Y3256841D02*
X0126649Y3256839D01*
X0126594D01*
X0126510Y3256841D01*
X0126239Y3256839D02*
X0126323Y3256838D01*
X0126100Y3256839D02*
X0126267D01*
X0126323Y3256840D01*
Y3256841D01*
X0126267Y3256841D01*
X0126100D01*
Y3256838D01*
X0125913Y3256838D02*
X0125885Y3256838D01*
X0125718D01*
X0125690Y3256838D01*
Y3256841D01*
X0125718Y3256841D01*
X0125885D01*
X0125913Y3256841D01*
X0126261Y3256840D02*
X0126205Y3256840D01*
X0126150D01*
X0126094Y3256840D01*
Y3256838D01*
X0126150Y3256838D01*
X0126205D01*
X0126261Y3256838D01*
Y3256840D01*
X0126316Y3256840D01*
X0126372D01*
X0126428Y3256840D01*
Y3256838D01*
X0126372Y3256838D01*
X0126316D01*
X0126261Y3256838D01*
X0124799Y3256871D02*
X0122799D01*
Y3256861D02*
X0124799D01*
X0138115Y3256981D02*
Y3256999D01*
X0137365D01*
Y3256981D01*
X0138115D01*
X0137740Y3257001D02*
Y3256999D01*
Y3256979D02*
Y3256981D01*
X0124877Y3256855D02*
X0122877D01*
Y3256845D02*
X0124877D01*
X0125305Y3256981D02*
X0124305D01*
Y3257001D01*
X0125305D01*
Y3256981D01*
X0143099Y3257017D02*
X0141349D01*
Y3257010D01*
X0143099D01*
Y3257017D01*
X0141099Y3257013D02*
X0141349D01*
X0143349D02*
X0143099D01*
X0137688Y3256886D02*
Y3256903D01*
X0136938D01*
Y3256886D01*
X0137688D01*
X0137313Y3256906D02*
Y3256903D01*
Y3256883D02*
Y3256886D01*
X0117556Y3256829D02*
X0116556D01*
Y3256849D01*
X0117556D01*
Y3256829D01*
X0119011Y3256828D02*
X0118011D01*
Y3256848D01*
X0119011D01*
Y3256828D01*
X0142949Y3256884D02*
Y3256878D01*
X0143949D01*
Y3256919D01*
X0142949D01*
Y3256919D01*
Y3256914D01*
Y3256904D01*
Y3256894D01*
Y3256884D01*
X0119594Y3256793D02*
Y3256810D01*
X0118844D01*
Y3256793D01*
X0119594D01*
X0119219Y3256813D02*
Y3256810D01*
Y3256790D02*
Y3256793D01*
X0123761Y3256802D02*
Y3256785D01*
X0124511D01*
Y3256802D01*
X0123761D01*
X0124136Y3256782D02*
Y3256785D01*
Y3256805D02*
Y3256802D01*
X0122290Y3256778D02*
X0122282Y3256778D01*
X0121941Y3256776D01*
X0121540Y3256775D01*
X0121139Y3256776D01*
X0120798Y3256778D01*
X0120571Y3256781D01*
X0120491Y3256785D01*
X0120571Y3256789D01*
X0120798Y3256793D01*
X0121139Y3256795D01*
X0121540Y3256796D01*
X0121941Y3256795D01*
X0122282Y3256793D01*
Y3256778D01*
X0116642Y3256809D02*
Y3256791D01*
X0117392D01*
Y3256809D01*
X0116642D01*
X0117017Y3256789D02*
Y3256791D01*
Y3256811D02*
Y3256809D01*
X0117350Y3256770D02*
Y3256752D01*
X0118100D01*
Y3256770D01*
X0117350D01*
X0117725Y3256750D02*
Y3256752D01*
Y3256772D02*
Y3256770D01*
X0116288D02*
Y3256752D01*
X0117038D01*
Y3256770D01*
X0116288D01*
X0116663Y3256750D02*
Y3256752D01*
Y3256772D02*
Y3256770D01*
X0121223Y3256825D02*
X0121231Y3256825D01*
X0121572Y3256827D01*
X0121973Y3256828D01*
X0122374Y3256827D01*
X0122715Y3256825D01*
X0122942Y3256822D01*
X0123022Y3256818D01*
X0122942Y3256814D01*
X0122715Y3256810D01*
X0122374Y3256808D01*
X0121973Y3256807D01*
X0121572Y3256808D01*
X0121231Y3256810D01*
Y3256825D01*
X0123122Y3256764D02*
X0120122D01*
Y3256748D01*
X0123122D01*
Y3256764D01*
X0122622D02*
Y3256748D01*
X0123872Y3256756D02*
X0123122D01*
X0119372D02*
X0120122D01*
X0121101Y3256943D02*
X0119101D01*
Y3256933D02*
X0121101D01*
X0119921Y3256912D02*
X0117921D01*
Y3256902D02*
X0119921D01*
X0121297Y3256967D02*
X0117097D01*
Y3256973D02*
X0121297D01*
Y3256950D01*
X0117097D01*
Y3256973D01*
X0125367Y3256958D02*
X0126367D01*
Y3256898D01*
X0125367D01*
Y3256958D01*
X0137875Y3256748D02*
X0136875D01*
Y3256779D01*
X0137625D01*
Y3256775D01*
X0138875D01*
Y3256748D01*
X0125996Y3256864D02*
X0126996D01*
Y3256844D01*
X0125996D01*
Y3256864D01*
X0140039Y3256972D02*
Y3256962D01*
X0142139D01*
Y3256972D01*
X0141589D01*
X0140589D01*
X0140039D01*
X0131474Y3256975D02*
X0132474D01*
X0134474D01*
Y3256765D01*
X0129474D01*
Y3256975D01*
X0131474D01*
Y3256972D01*
X0132474D01*
Y3256975D01*
X0125760Y3256834D02*
X0126760D01*
Y3256754D01*
X0125760D01*
Y3256834D01*
X0140802Y3256912D02*
X0139802D01*
Y3256751D01*
X0140802D01*
Y3256757D01*
Y3256767D01*
Y3256777D01*
Y3256787D01*
Y3256797D01*
Y3256817D01*
Y3256837D01*
Y3256857D01*
Y3256877D01*
Y3256897D01*
Y3256912D01*
G54D49*
G01X0131061Y3257002D02*
X0126731D01*
Y3257026D01*
X0131061D01*
Y3257002D01*
X0123749Y3256991D02*
X0117056D01*
Y3257038D01*
X0123749D01*
Y3256991D01*
G54D50*
G01X0118239Y3256989D02*
X0118589D01*
X0118239Y3256986D01*
Y3256985D01*
X0118283Y3256984D01*
X0118545D01*
X0118589Y3256985D01*
X0119747Y3256986D02*
X0119616Y3256989D01*
X0119966Y3256986D02*
X0119704D01*
X0119616Y3256986D01*
Y3256985D01*
X0119704Y3256984D01*
X0119966D01*
Y3256989D01*
X0120294Y3256986D02*
X0120556D01*
X0120206Y3256989D02*
X0120556D01*
Y3256984D01*
X0120206D01*
X0121103Y3256989D02*
Y3256984D01*
X0121147Y3256989D02*
X0120884D01*
X0120797Y3256987D01*
Y3256986D01*
X0120884Y3256984D01*
X0121147D01*
X0121387Y3256987D02*
X0121737D01*
X0121387Y3256989D02*
Y3256986D01*
X0121518Y3256984D01*
X0121606D01*
X0121737Y3256986D01*
Y3256989D01*
X0122065Y3256986D02*
X0122327D01*
X0121977Y3256989D02*
X0122327D01*
Y3256984D01*
X0121977D01*
X0122568Y3256986D02*
X0122918D01*
X0122568Y3256989D02*
Y3256984D01*
X0122918Y3256989D02*
Y3256984D01*
X0122109Y3256977D02*
X0122284D01*
X0122196D02*
Y3256972D01*
X0122284Y3256973D01*
X0122918Y3256975D02*
Y3256976D01*
X0122874Y3256977D01*
X0122699D01*
X0122655Y3256976D01*
Y3256972D01*
X0122612D02*
X0122787D01*
X0132635Y3257040D02*
X0132285D01*
X0132635Y3257044D01*
Y3257044D01*
X0132591Y3257045D01*
X0132328D01*
X0132285Y3257044D01*
X0131126Y3257043D02*
X0131257Y3257040D01*
X0130907Y3257043D02*
X0131170D01*
X0131257Y3257044D01*
Y3257044D01*
X0131170Y3257045D01*
X0130907D01*
Y3257040D01*
X0130579Y3257043D02*
X0130317D01*
X0130667Y3257040D02*
X0130317D01*
Y3257045D01*
X0130667D01*
X0129770Y3257040D02*
Y3257045D01*
X0129727Y3257040D02*
X0129989D01*
X0130077Y3257042D01*
Y3257044D01*
X0129989Y3257045D01*
X0129727D01*
X0129486Y3257042D02*
X0129136D01*
X0129486Y3257040D02*
Y3257043D01*
X0129355Y3257045D01*
X0129267D01*
X0129136Y3257043D01*
Y3257040D01*
X0128808Y3257043D02*
X0128546D01*
X0128896Y3257040D02*
X0128546D01*
Y3257045D01*
X0128896D01*
X0128306Y3257043D02*
X0127956D01*
X0128306Y3257040D02*
Y3257045D01*
X0127956Y3257040D02*
Y3257045D01*
X0151442Y3256978D02*
Y3256978D01*
X0151486Y3256977D01*
X0151661D01*
X0151704Y3256978D01*
Y3256982D01*
X0151748D02*
X0151573D01*
X0151202Y3256975D02*
X0150852D01*
X0150611Y3256978D02*
X0150261D01*
X0150436Y3256982D01*
X0150524D01*
Y3256977D01*
X0150021Y3256979D02*
X0149671D01*
X0149124D02*
X0149387D01*
X0149431Y3256978D01*
Y3256978D01*
X0149387Y3256977D01*
X0149124D01*
X0149081Y3256978D01*
Y3256978D01*
X0149256Y3256982D01*
X0147747Y3256977D02*
Y3256982D01*
X0147703Y3256977D02*
X0147966D01*
X0148053Y3256978D01*
Y3256980D01*
X0147966Y3256982D01*
X0147703D01*
X0147157Y3256977D02*
X0147113Y3256978D01*
Y3256981D01*
X0147157Y3256982D01*
X0147419D01*
X0147463Y3256981D01*
Y3256978D01*
X0147419Y3256977D01*
X0147157D01*
X0146873D02*
Y3256982D01*
X0146785Y3256981D01*
X0146698Y3256979D01*
X0146610Y3256981D01*
X0146523Y3256982D01*
Y3256977D01*
X0145495Y3256982D02*
Y3256977D01*
X0145408Y3256978D01*
X0145233Y3256981D01*
X0145145Y3256982D01*
Y3256977D01*
X0144905Y3256982D02*
Y3256977D01*
X0144817Y3256978D01*
X0144642Y3256981D01*
X0144555Y3256982D01*
Y3256977D01*
X0144008D02*
X0143965Y3256978D01*
Y3256981D01*
X0144008Y3256982D01*
X0144271D01*
X0144315Y3256981D01*
Y3256978D01*
X0144271Y3256977D01*
X0144008D01*
X0143724Y3256978D02*
X0143680Y3256977D01*
X0143418D01*
X0143374Y3256978D01*
Y3256981D01*
X0143418Y3256982D01*
X0143680D01*
X0143724Y3256981D01*
X0144227Y3256991D02*
X0144271Y3256992D01*
Y3256993D01*
X0144227Y3256994D01*
X0143964D01*
X0143921Y3256993D01*
Y3256992D01*
X0143964Y3256991D01*
X0144227D01*
X0144271Y3256990D01*
Y3256989D01*
X0144227Y3256989D01*
X0143964D01*
X0143921Y3256989D01*
Y3256990D01*
X0143964Y3256991D01*
X0143374Y3256990D02*
Y3256989D01*
X0143418Y3256989D01*
X0143593D01*
X0143637Y3256989D01*
Y3256994D01*
X0143680D02*
X0143505D01*
X0128808Y3257055D02*
X0128546D01*
X0128502Y3257055D01*
Y3257056D01*
X0128546Y3257057D01*
X0128808D01*
X0128852Y3257056D01*
Y3257055D01*
X0128677Y3257052D01*
X0127956Y3257054D02*
Y3257053D01*
X0127999Y3257052D01*
X0128174D01*
X0128218Y3257053D01*
Y3257057D01*
X0128262D02*
X0128087D01*
G54D51*
G01X0119322Y3256857D02*
X0119411Y3256856D01*
X0119588D01*
X0119677Y3256857D01*
Y3256858D01*
X0119499Y3256860D01*
X0119677Y3256862D01*
X0119322D01*
X0118722Y3256857D02*
X0118811Y3256856D01*
X0118988D01*
X0119077Y3256857D01*
Y3256858D01*
X0118899Y3256860D01*
X0119077Y3256862D01*
X0118722D01*
X0143277Y3257015D02*
X0142922D01*
X0143099Y3257019D01*
X0143188D01*
Y3257014D01*
X0142322Y3257014D02*
X0142411Y3257014D01*
X0142588D01*
X0142677Y3257014D01*
Y3257015D01*
X0142499Y3257017D01*
X0142677Y3257019D01*
X0142322D01*
X0143238Y3256856D02*
X0142882D01*
X0143238Y3256859D01*
Y3256860D01*
X0143193Y3256861D01*
X0142927D01*
X0142882Y3256860D01*
X0142282Y3256857D02*
X0142371Y3256856D01*
X0142549D01*
X0142638Y3256857D01*
Y3256858D01*
X0142460Y3256859D01*
X0142638Y3256861D01*
X0142282D01*
G54D10*
X0122877Y3256850D03*
X0124877D03*
X0122799Y3256866D03*
X0124799D03*
X0119101Y3256938D03*
X0121101D03*
X0117921Y3256907D03*
X0119921D03*
G54D11*
X0118872Y3256756D03*
G54D12*
X0124372D03*
G54D14*
X0140589Y3256967D03*
X0143449Y3256904D03*
Y3256894D03*
Y3256884D03*
X0140302Y3256767D03*
Y3256777D03*
Y3256787D03*
Y3256797D03*
Y3256807D03*
Y3256817D03*
Y3256827D03*
Y3256837D03*
Y3256857D03*
Y3256867D03*
Y3256877D03*
Y3256887D03*
Y3256897D03*
Y3256907D03*
G54D15*
X0141589Y3256967D03*
X0143449Y3256914D03*
X0140302Y3256757D03*
Y3256847D03*
G54D16*
X0126496Y3256859D03*
X0128974Y3256955D03*
Y3256945D03*
Y3256935D03*
Y3256925D03*
Y3256915D03*
Y3256905D03*
Y3256895D03*
Y3256885D03*
Y3256875D03*
Y3256865D03*
Y3256855D03*
Y3256845D03*
Y3256835D03*
Y3256825D03*
Y3256815D03*
Y3256805D03*
Y3256795D03*
Y3256785D03*
Y3256775D03*
X0134974D03*
Y3256785D03*
Y3256795D03*
Y3256805D03*
Y3256815D03*
Y3256825D03*
Y3256835D03*
Y3256845D03*
Y3256855D03*
Y3256865D03*
Y3256875D03*
Y3256885D03*
Y3256895D03*
Y3256905D03*
Y3256915D03*
Y3256925D03*
Y3256935D03*
Y3256945D03*
Y3256955D03*
Y3256965D03*
X0124805Y3256986D03*
X0126260Y3256769D03*
Y3256779D03*
Y3256789D03*
Y3256799D03*
Y3256809D03*
Y3256819D03*
Y3256829D03*
X0117056Y3256834D03*
X0118511Y3256833D03*
X0125867Y3256913D03*
Y3256923D03*
Y3256933D03*
Y3256943D03*
Y3256953D03*
G54D17*
X0126496Y3256849D03*
X0128974Y3256965D03*
X0124805Y3256996D03*
X0126260Y3256759D03*
X0117056Y3256844D03*
X0118511Y3256843D03*
X0125867Y3256903D03*
G54D18*
X0121973Y3256818D03*
Y3256813D03*
X0121540Y3256785D03*
Y3256790D03*
G54D19*
X0121973Y3256823D03*
X0121540Y3256780D03*
G54D20*
X0137375Y3256762D03*
X0138375Y3256772D03*
G54D21*
Y3256752D03*
G54D22*
X0137740Y3256975D03*
Y3257005D03*
X0116663Y3256776D03*
Y3256746D03*
X0117725Y3256776D03*
Y3256746D03*
X0124136Y3256808D03*
Y3256778D03*
X0117017Y3256815D03*
Y3256785D03*
X0119219Y3256787D03*
Y3256817D03*
X0137313Y3256879D03*
Y3256909D03*
X0143724Y3257013D03*
X0140724D03*
G54D23*
X0119197Y3256961D03*
X0120197D03*
G54D24*
X0118197D03*
M02*
