*
G04 Mass Parameters ***
*
G04 Image ***
*
%IND:\SHECHEM\DOCUMENTS\ONEDRIVE\DOCUMENTS\SEMESTER 5\ELECTRONIC DESIGN REALIZATION\ORCAD\PCB_FINAL\SCHEMATIC 2_ADRIAN.DRD*%
%ICAS*%
%MOIN*%
%IPPOS*%
%ASAXBY*%
G74*%FSLAN2X34Y34*%
*
G04 Aperture Definitions ***
*
%ADD10C,0.0550*%
%ADD11C,0.0520*%
%ADD12R,0.0520X0.0520*%
%ADD13R,0.0866X0.1180*%
%ADD14C,0.0620*%
%ADD15R,0.0620X0.0620*%
%ADD16C,0.0580*%
%ADD17R,0.0580X0.0580*%
%ADD18O,0.0600X0.0400*%
%ADD19R,0.0600X0.0400*%
%ADD20C,0.0490*%
%ADD21R,0.0490X0.0490*%
%ADD22C,0.0450*%
%ADD23C,0.0750*%
%ADD24R,0.0750X0.0750*%
%ADD25C,0.0500*%
%ADD26C,0.0315*%
%ADD27C,0.0197*%
%ADD28C,0.0720*%
%ADD29R,0.0720X0.0720*%
%ADD30C,0.0820*%
%ADD31R,0.0820X0.0820*%
%ADD32C,0.0780*%
%ADD33R,0.0780X0.0780*%
%ADD34C,0.0700*%
%ADD35O,0.0800X0.0600*%
%ADD36R,0.0800X0.0600*%
%ADD37C,0.0690*%
%ADD38R,0.0690X0.0690*%
%ADD39C,0.0650*%
%ADD40C,0.0950*%
%ADD41R,0.0950X0.0950*%
%ADD42C,0.0500*%
%ADD43C,0.0750*%
%ADD44R,0.0945X0.1260*%
%ADD45C,0.0670*%
%ADD46R,0.0670X0.0670*%
%ADD47C,0.0550*%
%ADD48C,0.0080*%
%ADD49C,0.0010*%
%ADD50C,0.0098*%
%ADD51C,0.0100*%
%ADD52C,0.1100*%
%ADD53C,0.1000*%
%ADD54C,0.1400*%
%ADD55C,0.1050*%
*
G04 Plot Data ***
*
G54D42*
G01X0114696Y3257042D02*
Y3256731D01*
X0146281D01*
Y3257043D01*
X0115758Y3257042D01*
X0114696D01*
G54D51*
G01X0160937Y3256883D02*
X0160604D01*
X0160770D02*
Y3256893D01*
X0160604Y3256891D01*
X0159487Y3256884D02*
X0159570Y3256883D01*
X0160070D01*
X0160154Y3256884D01*
Y3256888D01*
X0159987Y3256889D01*
X0159487D01*
Y3256893D01*
X0160154D01*
X0159204Y3256883D02*
X0158870D01*
X0159037D02*
Y3256893D01*
X0158870Y3256891D01*
X0148541Y3256883D02*
X0147958D01*
Y3256893D01*
X0147674Y3256886D02*
X0147008D01*
X0147674Y3256883D02*
Y3256888D01*
X0147424Y3256893D01*
X0147258D01*
X0147008Y3256888D01*
Y3256883D01*
X0146391D02*
Y3256893D01*
X0146724D02*
X0146058D01*
X0145191Y3256883D02*
X0145108Y3256884D01*
Y3256891D01*
X0145191Y3256893D01*
X0145691D01*
X0145774Y3256891D01*
Y3256884D01*
X0145691Y3256883D01*
X0145191D01*
X0144491D02*
Y3256893D01*
X0144824D02*
X0144158D01*
X0160492Y3256902D02*
X0160604Y3256901D01*
X0160826D01*
X0160937Y3256902D01*
Y3256904D01*
X0160715Y3256906D01*
X0160937Y3256908D01*
X0160492D01*
X0147098Y3256901D02*
Y3256905D01*
X0147320Y3256901D02*
Y3256905D01*
X0147265Y3256906D01*
X0147154D01*
X0147098Y3256905D01*
X0147042Y3256906D01*
X0146931D01*
X0146876Y3256905D01*
Y3256901D01*
X0146398D02*
Y3256905D01*
X0146620Y3256901D02*
Y3256905D01*
X0146565Y3256906D01*
X0146454D01*
X0146398Y3256905D01*
X0146342Y3256906D01*
X0146231D01*
X0146176Y3256905D01*
Y3256901D01*
X0144970Y3256904D02*
X0144526D01*
X0144748Y3256908D01*
X0144859D01*
Y3256901D01*
X0144215Y3256905D02*
X0143881D01*
X0143826Y3256906D01*
Y3256907D01*
X0143881Y3256908D01*
X0144215D01*
X0144270Y3256907D01*
Y3256906D01*
X0144048Y3256901D01*
X0143237D02*
X0143570Y3256908D01*
X0143126D01*
X0142759Y3256901D02*
X0142870D01*
Y3256902D01*
X0142759D01*
Y3256901D01*
X0142393D02*
X0141948D01*
X0142393Y3256906D01*
Y3256907D01*
X0142337Y3256908D01*
X0142004D01*
X0141948Y3256907D01*
X0160937Y3256916D02*
X0160492D01*
X0160937Y3256921D01*
Y3256922D01*
X0160881Y3256923D01*
X0160548D01*
X0160492Y3256922D01*
X0147098Y3256916D02*
Y3256920D01*
X0147320Y3256916D02*
Y3256920D01*
X0147265Y3256921D01*
X0147154D01*
X0147098Y3256920D01*
X0147042Y3256921D01*
X0146931D01*
X0146876Y3256920D01*
Y3256916D01*
X0146398D02*
Y3256920D01*
X0146620Y3256916D02*
Y3256920D01*
X0146565Y3256921D01*
X0146454D01*
X0146398Y3256920D01*
X0146342Y3256921D01*
X0146231D01*
X0146176Y3256920D01*
Y3256916D01*
X0144692D02*
X0144581Y3256917D01*
X0144526Y3256919D01*
Y3256921D01*
X0144581Y3256922D01*
X0144692Y3256923D01*
X0144804D01*
X0144915Y3256922D01*
X0144970Y3256921D01*
Y3256919D01*
X0144915Y3256917D01*
X0144804Y3256916D01*
X0144692D01*
X0143992D02*
X0143881Y3256917D01*
X0143826Y3256919D01*
Y3256921D01*
X0143881Y3256922D01*
X0143992Y3256923D01*
X0144104D01*
X0144215Y3256922D01*
X0144270Y3256921D01*
Y3256919D01*
X0144215Y3256917D01*
X0144104Y3256916D01*
X0143992D01*
X0143292D02*
X0143181Y3256917D01*
X0143126Y3256919D01*
Y3256921D01*
X0143181Y3256922D01*
X0143292Y3256923D01*
X0143404D01*
X0143515Y3256922D01*
X0143570Y3256921D01*
Y3256919D01*
X0143515Y3256917D01*
X0143404Y3256916D01*
X0143292D01*
X0142759D02*
X0142870D01*
Y3256917D01*
X0142759D01*
Y3256916D01*
X0142393D02*
X0141948D01*
X0142393Y3256921D01*
Y3256922D01*
X0142337Y3256923D01*
X0142004D01*
X0141948Y3256922D01*
X0160492Y3256932D02*
X0160604Y3256931D01*
X0160826D01*
X0160937Y3256932D01*
Y3256934D01*
X0160715Y3256936D01*
X0160937Y3256938D01*
X0160492D01*
X0147098Y3256931D02*
Y3256935D01*
X0147320Y3256931D02*
Y3256935D01*
X0147265Y3256936D01*
X0147154D01*
X0147098Y3256935D01*
X0147042Y3256936D01*
X0146931D01*
X0146876Y3256935D01*
Y3256931D01*
X0146398D02*
Y3256935D01*
X0146620Y3256931D02*
Y3256935D01*
X0146565Y3256936D01*
X0146454D01*
X0146398Y3256935D01*
X0146342Y3256936D01*
X0146231D01*
X0146176Y3256935D01*
Y3256931D01*
X0144970D02*
X0144526D01*
X0144970Y3256936D01*
Y3256937D01*
X0144915Y3256938D01*
X0144581D01*
X0144526Y3256937D01*
X0143937Y3256931D02*
X0144270Y3256938D01*
X0143826D01*
X0143126Y3256932D02*
X0143237Y3256931D01*
X0143459D01*
X0143570Y3256932D01*
Y3256934D01*
X0143348Y3256936D01*
X0143570Y3256938D01*
X0143126D01*
X0142759Y3256931D02*
X0142870D01*
Y3256932D01*
X0142759D01*
Y3256931D01*
X0142393D02*
X0142171D01*
X0142282D02*
Y3256938D01*
X0142171Y3256937D01*
X0160937Y3256946D02*
X0160492D01*
X0160937Y3256951D01*
Y3256952D01*
X0160881Y3256953D01*
X0160548D01*
X0160492Y3256952D01*
X0160237Y3256946D02*
X0159792D01*
X0160237Y3256951D01*
Y3256952D01*
X0160181Y3256953D01*
X0159848D01*
X0159792Y3256952D01*
X0147098Y3256946D02*
Y3256950D01*
X0147320Y3256946D02*
Y3256950D01*
X0147265Y3256951D01*
X0147154D01*
X0147098Y3256950D01*
X0147042Y3256951D01*
X0146931D01*
X0146876Y3256950D01*
Y3256946D01*
X0146398D02*
Y3256950D01*
X0146620Y3256946D02*
Y3256950D01*
X0146565Y3256951D01*
X0146454D01*
X0146398Y3256950D01*
X0146342Y3256951D01*
X0146231D01*
X0146176Y3256950D01*
Y3256946D01*
X0144637D02*
X0144970Y3256953D01*
X0144526D01*
X0143881Y3256950D02*
X0144215D01*
X0144270Y3256949D01*
Y3256947D01*
X0144215Y3256946D01*
X0143881D01*
X0143826Y3256947D01*
Y3256949D01*
X0144048Y3256953D01*
X0143292Y3256946D02*
X0143181Y3256947D01*
X0143126Y3256949D01*
Y3256951D01*
X0143181Y3256952D01*
X0143292Y3256953D01*
X0143404D01*
X0143515Y3256952D01*
X0143570Y3256951D01*
Y3256949D01*
X0143515Y3256947D01*
X0143404Y3256946D01*
X0143292D01*
X0142759D02*
X0142870D01*
Y3256947D01*
X0142759D01*
Y3256946D01*
X0142393D02*
X0142171D01*
X0142282D02*
Y3256953D01*
X0142171Y3256952D01*
X0160937Y3256961D02*
X0160492D01*
X0160937Y3256966D01*
Y3256967D01*
X0160881Y3256968D01*
X0160548D01*
X0160492Y3256967D01*
X0147098Y3256961D02*
Y3256965D01*
X0147320Y3256961D02*
Y3256965D01*
X0147265Y3256966D01*
X0147154D01*
X0147098Y3256965D01*
X0147042Y3256966D01*
X0146931D01*
X0146876Y3256965D01*
Y3256961D01*
X0146398D02*
Y3256965D01*
X0146620Y3256961D02*
Y3256965D01*
X0146565Y3256966D01*
X0146454D01*
X0146398Y3256965D01*
X0146342Y3256966D01*
X0146231D01*
X0146176Y3256965D01*
Y3256961D01*
X0144526Y3256962D02*
X0144581Y3256961D01*
X0144915D01*
X0144970Y3256962D01*
Y3256965D01*
X0144859Y3256966D01*
X0144526D01*
Y3256968D01*
X0144970D01*
X0143881Y3256965D02*
X0144215D01*
X0144270Y3256964D01*
Y3256962D01*
X0144215Y3256961D01*
X0143881D01*
X0143826Y3256962D01*
Y3256964D01*
X0144048Y3256968D01*
X0143515Y3256965D02*
X0143181D01*
X0143126Y3256966D01*
Y3256967D01*
X0143181Y3256968D01*
X0143515D01*
X0143570Y3256967D01*
Y3256966D01*
X0143348Y3256961D01*
X0142759D02*
X0142870D01*
Y3256962D01*
X0142759D01*
Y3256961D01*
X0142115D02*
X0142004Y3256962D01*
X0141948Y3256964D01*
Y3256966D01*
X0142004Y3256967D01*
X0142115Y3256968D01*
X0142226D01*
X0142337Y3256967D01*
X0142393Y3256966D01*
Y3256964D01*
X0142337Y3256962D01*
X0142226Y3256961D01*
X0142115D01*
X0160937Y3256976D02*
X0160492D01*
X0160937Y3256981D01*
Y3256982D01*
X0160881Y3256983D01*
X0160548D01*
X0160492Y3256982D01*
X0160237Y3256976D02*
X0159792D01*
X0160237Y3256981D01*
Y3256982D01*
X0160181Y3256983D01*
X0159848D01*
X0159792Y3256982D01*
X0147098Y3256976D02*
Y3256980D01*
X0147320Y3256976D02*
Y3256980D01*
X0147265Y3256981D01*
X0147154D01*
X0147098Y3256980D01*
X0147042Y3256981D01*
X0146931D01*
X0146876Y3256980D01*
Y3256976D01*
X0146398D02*
Y3256980D01*
X0146620Y3256976D02*
Y3256980D01*
X0146565Y3256981D01*
X0146454D01*
X0146398Y3256980D01*
X0146342Y3256981D01*
X0146231D01*
X0146176Y3256980D01*
Y3256976D01*
X0144692D02*
X0144581Y3256977D01*
X0144526Y3256979D01*
Y3256981D01*
X0144581Y3256982D01*
X0144692Y3256983D01*
X0144804D01*
X0144915Y3256982D01*
X0144970Y3256981D01*
Y3256979D01*
X0144915Y3256977D01*
X0144804Y3256976D01*
X0144692D01*
X0144270Y3256979D02*
X0143826D01*
X0144048Y3256983D01*
X0144159D01*
Y3256976D01*
X0143515Y3256980D02*
X0143181D01*
X0143126Y3256981D01*
Y3256982D01*
X0143181Y3256983D01*
X0143515D01*
X0143570Y3256982D01*
Y3256981D01*
X0143348Y3256976D01*
X0142759D02*
X0142870D01*
Y3256977D01*
X0142759D01*
Y3256976D01*
X0142115D02*
X0142004Y3256977D01*
X0141948Y3256979D01*
Y3256981D01*
X0142004Y3256982D01*
X0142115Y3256983D01*
X0142226D01*
X0142337Y3256982D01*
X0142393Y3256981D01*
Y3256979D01*
X0142337Y3256977D01*
X0142226Y3256976D01*
X0142115D01*
X0160881Y3256995D02*
X0160937Y3256996D01*
Y3256997D01*
X0160881Y3256998D01*
X0160548D01*
X0160492Y3256997D01*
Y3256996D01*
X0160548Y3256995D01*
X0160881D01*
X0160937Y3256994D01*
Y3256992D01*
X0160881Y3256991D01*
X0160548D01*
X0160492Y3256992D01*
Y3256994D01*
X0160548Y3256995D01*
X0160237Y3256994D02*
X0159792D01*
X0160015Y3256998D01*
X0160126D01*
Y3256991D01*
X0147098D02*
Y3256995D01*
X0147320Y3256991D02*
Y3256995D01*
X0147265Y3256996D01*
X0147154D01*
X0147098Y3256995D01*
X0147042Y3256996D01*
X0146931D01*
X0146876Y3256995D01*
Y3256991D01*
X0146398D02*
Y3256995D01*
X0146620Y3256991D02*
Y3256995D01*
X0146565Y3256996D01*
X0146454D01*
X0146398Y3256995D01*
X0146342Y3256996D01*
X0146231D01*
X0146176Y3256995D01*
Y3256991D01*
X0144970Y3256994D02*
X0144526D01*
X0144748Y3256998D01*
X0144859D01*
Y3256991D01*
X0143881Y3256995D02*
X0144215D01*
X0144270Y3256994D01*
Y3256992D01*
X0144215Y3256991D01*
X0143881D01*
X0143826Y3256992D01*
Y3256994D01*
X0144048Y3256998D01*
X0143515Y3256995D02*
X0143570Y3256996D01*
Y3256997D01*
X0143515Y3256998D01*
X0143181D01*
X0143126Y3256997D01*
Y3256996D01*
X0143181Y3256995D01*
X0143515D01*
X0143570Y3256994D01*
Y3256992D01*
X0143515Y3256991D01*
X0143181D01*
X0143126Y3256992D01*
Y3256994D01*
X0143181Y3256995D01*
X0142759Y3256991D02*
X0142870D01*
Y3256992D01*
X0142759D01*
Y3256991D01*
X0142115D02*
X0142004Y3256992D01*
X0141948Y3256994D01*
Y3256996D01*
X0142004Y3256997D01*
X0142115Y3256998D01*
X0142226D01*
X0142337Y3256997D01*
X0142393Y3256996D01*
Y3256994D01*
X0142337Y3256992D01*
X0142226Y3256991D01*
X0142115D01*
X0160881Y3257010D02*
X0160937Y3257011D01*
Y3257012D01*
X0160881Y3257013D01*
X0160548D01*
X0160492Y3257012D01*
Y3257011D01*
X0160548Y3257010D01*
X0160881D01*
X0160937Y3257009D01*
Y3257007D01*
X0160881Y3257006D01*
X0160548D01*
X0160492Y3257007D01*
Y3257009D01*
X0160548Y3257010D01*
X0147098Y3257006D02*
Y3257010D01*
X0147320Y3257006D02*
Y3257010D01*
X0147265Y3257011D01*
X0147154D01*
X0147098Y3257010D01*
X0147042Y3257011D01*
X0146931D01*
X0146876Y3257010D01*
Y3257006D01*
X0146398D02*
Y3257010D01*
X0146620Y3257006D02*
Y3257010D01*
X0146565Y3257011D01*
X0146454D01*
X0146398Y3257010D01*
X0146342Y3257011D01*
X0146231D01*
X0146176Y3257010D01*
Y3257006D01*
X0144637D02*
X0144970Y3257013D01*
X0144526D01*
X0144215Y3257010D02*
X0144270Y3257011D01*
Y3257012D01*
X0144215Y3257013D01*
X0143881D01*
X0143826Y3257012D01*
Y3257011D01*
X0143881Y3257010D01*
X0144215D01*
X0144270Y3257009D01*
Y3257007D01*
X0144215Y3257006D01*
X0143881D01*
X0143826Y3257007D01*
Y3257009D01*
X0143881Y3257010D01*
X0143237Y3257006D02*
X0143570Y3257013D01*
X0143126D01*
X0142759Y3257006D02*
X0142870D01*
Y3257007D01*
X0142759D01*
Y3257006D01*
X0142115D02*
X0142004Y3257007D01*
X0141948Y3257009D01*
Y3257011D01*
X0142004Y3257012D01*
X0142115Y3257013D01*
X0142226D01*
X0142337Y3257012D01*
X0142393Y3257011D01*
Y3257009D01*
X0142337Y3257007D01*
X0142226Y3257006D01*
X0142115D01*
X0160604Y3257021D02*
X0160937Y3257028D01*
X0160492D01*
X0159792Y3257022D02*
X0159904Y3257021D01*
X0160126D01*
X0160237Y3257022D01*
Y3257024D01*
X0160015Y3257026D01*
X0160237Y3257028D01*
X0159792D01*
X0147098Y3257021D02*
Y3257025D01*
X0147320Y3257021D02*
Y3257025D01*
X0147265Y3257026D01*
X0147154D01*
X0147098Y3257025D01*
X0147042Y3257026D01*
X0146931D01*
X0146876Y3257025D01*
Y3257021D01*
X0146398D02*
Y3257025D01*
X0146620Y3257021D02*
Y3257025D01*
X0146565Y3257026D01*
X0146454D01*
X0146398Y3257025D01*
X0146342Y3257026D01*
X0146231D01*
X0146176Y3257025D01*
Y3257021D01*
X0144970D02*
X0144748D01*
X0144859D02*
Y3257028D01*
X0144748Y3257027D01*
X0144382Y3257021D02*
X0144160D01*
X0144271D02*
Y3257028D01*
X0144160Y3257027D01*
X0143460Y3257021D02*
X0143793Y3257028D01*
X0143348D01*
X0142982Y3257021D02*
X0143093D01*
Y3257022D01*
X0142982D01*
Y3257021D01*
X0142337D02*
X0142226Y3257022D01*
X0142171Y3257024D01*
Y3257026D01*
X0142226Y3257027D01*
X0142337Y3257028D01*
X0142449D01*
X0142560Y3257027D01*
X0142615Y3257026D01*
Y3257024D01*
X0142560Y3257022D01*
X0142449Y3257021D01*
X0142337D01*
X0160937Y3257039D02*
X0160492D01*
X0160715Y3257043D01*
X0160826D01*
Y3257036D01*
X0147098D02*
Y3257040D01*
X0147320Y3257036D02*
Y3257040D01*
X0147265Y3257041D01*
X0147154D01*
X0147098Y3257040D01*
X0147042Y3257041D01*
X0146931D01*
X0146876Y3257040D01*
Y3257036D01*
X0146398D02*
Y3257040D01*
X0146620Y3257036D02*
Y3257040D01*
X0146565Y3257041D01*
X0146454D01*
X0146398Y3257040D01*
X0146342Y3257041D01*
X0146231D01*
X0146176Y3257040D01*
Y3257036D01*
X0144915Y3257040D02*
X0144581D01*
X0144526Y3257041D01*
Y3257042D01*
X0144581Y3257043D01*
X0144915D01*
X0144970Y3257042D01*
Y3257041D01*
X0144748Y3257036D01*
X0144215Y3257040D02*
X0143881D01*
X0143826Y3257041D01*
Y3257042D01*
X0143881Y3257043D01*
X0144215D01*
X0144270Y3257042D01*
Y3257041D01*
X0144048Y3257036D01*
X0143181Y3257040D02*
X0143515D01*
X0143570Y3257039D01*
Y3257037D01*
X0143515Y3257036D01*
X0143181D01*
X0143126Y3257037D01*
Y3257039D01*
X0143348Y3257043D01*
X0142759Y3257036D02*
X0142870D01*
Y3257037D01*
X0142759D01*
Y3257036D01*
X0142115D02*
X0142004Y3257037D01*
X0141948Y3257039D01*
Y3257041D01*
X0142004Y3257042D01*
X0142115Y3257043D01*
X0142226D01*
X0142337Y3257042D01*
X0142393Y3257041D01*
Y3257039D01*
X0142337Y3257037D01*
X0142226Y3257036D01*
X0142115D01*
X0169341Y3257058D02*
X0168841D01*
X0169508Y3257053D02*
X0168841D01*
Y3257063D01*
X0169508D01*
X0168224Y3257053D02*
Y3257063D01*
X0168558D02*
X0167891D01*
X0167024Y3257053D02*
X0166941Y3257054D01*
Y3257061D01*
X0167024Y3257063D01*
X0167524D01*
X0167608Y3257061D01*
Y3257054D01*
X0167524Y3257053D01*
X0167024D01*
X0166658Y3257063D02*
Y3257053D01*
X0166491Y3257054D01*
X0166158Y3257061D01*
X0165991Y3257063D01*
Y3257053D01*
X0160154D02*
Y3257058D01*
X0160487Y3257063D02*
X0160237Y3257058D01*
X0160070D01*
X0159820Y3257063D01*
X0159204Y3257053D02*
Y3257063D01*
X0159537D02*
X0158870D01*
X0158254Y3257056D02*
X0158587Y3257053D01*
X0157920Y3257054D02*
X0158004Y3257053D01*
X0158337D01*
X0158420Y3257054D01*
X0158587Y3257056D01*
Y3257061D01*
X0158504Y3257063D01*
X0158004D01*
X0157920Y3257061D01*
Y3257054D01*
X0153637Y3257053D02*
X0153054D01*
Y3257063D01*
X0152187Y3257053D02*
X0152104Y3257054D01*
Y3257061D01*
X0152187Y3257063D01*
X0152687D01*
X0152770Y3257061D01*
Y3257054D01*
X0152687Y3257053D01*
X0152187D01*
X0151487D02*
Y3257063D01*
X0151820D02*
X0151154D01*
X0145816Y3257053D02*
Y3257063D01*
X0145649Y3257061D01*
X0145483Y3257058D01*
X0145316Y3257061D01*
X0145149Y3257063D01*
Y3257053D01*
X0144866Y3257056D02*
X0144199D01*
X0144866Y3257053D02*
Y3257058D01*
X0144616Y3257063D01*
X0144449D01*
X0144199Y3257058D01*
Y3257053D01*
X0143916D02*
X0143583D01*
X0143749D02*
Y3257063D01*
X0143916D02*
X0143583D01*
X0142549Y3257053D02*
Y3257063D01*
X0142466Y3257053D02*
X0142966D01*
X0143133Y3257056D01*
Y3257059D01*
X0142966Y3257063D01*
X0142466D01*
X0139379Y3257053D02*
Y3257063D01*
X0139212Y3257061D01*
X0139045Y3257058D01*
X0138879Y3257061D01*
X0138712Y3257063D01*
Y3257053D01*
X0138095D02*
Y3257058D01*
X0138429Y3257063D02*
X0138179Y3257058D01*
X0138012D01*
X0137762Y3257063D01*
X0137479Y3257061D02*
X0137395Y3257063D01*
X0136895D01*
X0136812Y3257061D01*
Y3257059D01*
X0136895Y3257058D01*
X0137395D01*
X0137479Y3257056D01*
Y3257054D01*
X0137395Y3257053D01*
X0136895D01*
X0136812Y3257054D01*
X0159666Y3257073D02*
Y3257083D01*
X0159999D02*
X0159333D01*
X0158799Y3257078D02*
X0159049Y3257073D01*
X0158383Y3257078D02*
X0158883D01*
X0159049Y3257079D01*
Y3257081D01*
X0158883Y3257083D01*
X0158383D01*
Y3257073D01*
X0158099Y3257076D02*
X0157433D01*
X0158099Y3257073D02*
Y3257078D01*
X0157849Y3257083D01*
X0157683D01*
X0157433Y3257078D01*
Y3257073D01*
X0157149Y3257078D02*
X0156483D01*
X0157149Y3257073D02*
Y3257083D01*
X0156483Y3257073D02*
Y3257083D01*
X0156199Y3257074D02*
X0156116Y3257073D01*
X0155616D01*
X0155533Y3257074D01*
Y3257081D01*
X0155616Y3257083D01*
X0156116D01*
X0156199Y3257081D01*
X0153924Y3257073D02*
X0153341D01*
Y3257083D01*
X0153058Y3257073D02*
X0152474D01*
Y3257083D01*
X0152191Y3257073D02*
X0151858D01*
X0152024D02*
Y3257083D01*
X0152191D02*
X0151858D01*
X0151158Y3257078D02*
X0151408Y3257073D01*
X0150741Y3257078D02*
X0151241D01*
X0151408Y3257079D01*
Y3257081D01*
X0151241Y3257083D01*
X0150741D01*
Y3257073D01*
X0149874D02*
Y3257083D01*
X0149791Y3257073D02*
X0150291D01*
X0150458Y3257076D01*
Y3257079D01*
X0150291Y3257083D01*
X0149791D01*
X0142676Y3256791D02*
X0142176Y3256786D01*
X0142676D02*
X0142176Y3256791D01*
X0143109Y3256765D02*
X0142609Y3256760D01*
X0143109D02*
X0142609Y3256765D01*
X0144446Y3256865D02*
X0143946Y3256860D01*
X0144446D02*
X0143946Y3256865D01*
X0145115Y3256915D02*
X0144615Y3256910D01*
X0145115D02*
X0144615Y3256915D01*
X0119823Y3256992D02*
X0119323Y3256987D01*
X0119823D02*
X0119323Y3256992D01*
X0134691Y3257007D02*
X0134191Y3257002D01*
X0134691D02*
X0134191Y3257007D01*
X0139372Y3257006D02*
X0138872Y3257001D01*
X0139372D02*
X0138872Y3257006D01*
X0138507Y3256904D02*
X0138007Y3256899D01*
X0138507D02*
X0138007Y3256904D01*
X0123442Y3256905D02*
X0122942Y3256900D01*
X0123442D02*
X0122942Y3256905D01*
X0119351Y3256927D02*
X0118851Y3256922D01*
X0119351D02*
X0118851Y3256927D01*
X0133000Y3256828D02*
X0132500Y3256823D01*
X0133000D02*
X0132500Y3256828D01*
X0142558Y3256896D02*
X0142058Y3256891D01*
X0142558D02*
X0142058Y3256896D01*
X0126943Y3256841D02*
X0126443Y3256836D01*
X0126943D02*
X0126443Y3256841D01*
X0132253Y3256840D02*
X0131753Y3256835D01*
X0132253D02*
X0131753Y3256840D01*
X0143463Y3256938D02*
X0142963Y3256933D01*
X0143463D02*
X0142963Y3256938D01*
X0140198Y3256945D02*
X0139698Y3256940D01*
X0140198D02*
X0139698Y3256945D01*
X0137563Y3256789D02*
X0137063Y3256784D01*
X0137563D02*
X0137063Y3256789D01*
X0138192Y3256809D02*
X0137692Y3256804D01*
X0138192D02*
X0137692Y3256809D01*
X0137804Y3256905D02*
Y3256903D01*
X0138054Y3256902D02*
X0137804Y3256905D01*
X0138304D02*
X0138054Y3256902D01*
X0138304Y3256903D02*
Y3256905D01*
X0138054Y3256905D02*
X0138304Y3256903D01*
X0137804D02*
X0138054Y3256905D01*
Y3256920D02*
X0137804Y3256918D01*
X0138304D02*
X0138054Y3256920D01*
X0137804Y3256918D02*
X0138304D01*
X0137804Y3256936D02*
Y3256934D01*
X0138054Y3256936D02*
X0137804D01*
X0138054Y3256931D02*
Y3256936D01*
X0138304Y3256931D02*
X0138054D01*
X0138304Y3256934D02*
Y3256931D01*
X0137804Y3256934D02*
X0138304D01*
X0137804Y3256951D02*
Y3256946D01*
X0138304Y3256951D02*
X0137804D01*
X0138304Y3256946D02*
Y3256951D01*
X0137804Y3256946D02*
X0138304D01*
Y3256949D02*
X0137804D01*
X0138054Y3256951D02*
Y3256946D01*
X0137804Y3256966D02*
Y3256964D01*
X0138054Y3256966D02*
X0137804D01*
X0138054Y3256961D02*
Y3256966D01*
X0138304Y3256961D02*
X0138054D01*
X0138304Y3256964D02*
Y3256961D01*
X0137804Y3256964D02*
X0138304D01*
X0137804Y3256981D02*
Y3256976D01*
X0138304Y3256981D02*
X0137804D01*
X0138304Y3256976D02*
Y3256981D01*
X0137804Y3256976D02*
X0138304D01*
Y3256981D02*
X0137804Y3256976D01*
X0138304D02*
X0137804Y3256981D01*
X0138054Y3256996D02*
X0137804Y3256994D01*
X0138304D02*
X0138054Y3256996D01*
Y3256991D02*
X0138304Y3256994D01*
X0137804D02*
X0138054Y3256991D01*
X0138304Y3257009D02*
X0137804D01*
X0138054Y3257011D02*
Y3257006D01*
X0138304Y3257026D02*
X0137804Y3257021D01*
X0138304D02*
X0137804Y3257026D01*
Y3257040D02*
Y3257038D01*
X0137954Y3257041D02*
X0137804Y3257040D01*
X0138154Y3257041D02*
X0137954D01*
X0138304Y3257040D02*
X0138154Y3257041D01*
X0138304Y3257038D02*
Y3257040D01*
X0138154Y3257036D02*
X0138304Y3257038D01*
X0137954Y3257036D02*
X0138154D01*
X0137804Y3257038D02*
X0137954Y3257036D01*
X0173529Y3256876D02*
X0136179D01*
X0173479Y3256876D02*
X0136229D01*
X0173479Y3256896D02*
X0136229D01*
X0173479Y3256911D02*
X0136229D01*
X0173479Y3256926D02*
X0136229D01*
X0173479Y3256941D02*
X0136229D01*
X0173479Y3256956D02*
X0136229D01*
X0173479Y3256971D02*
X0136229D01*
X0173479Y3256986D02*
X0136229D01*
X0173479Y3257001D02*
X0136229D01*
X0173479Y3257016D02*
X0136229D01*
X0173479Y3257031D02*
X0136229D01*
X0173479Y3257046D02*
X0136229D01*
X0173479Y3257047D02*
X0136229D01*
X0173479Y3257066D02*
X0136229D01*
X0173479Y3257067D02*
X0136229D01*
X0173479Y3257086D02*
X0136229D01*
X0173529Y3257087D02*
X0136179D01*
X0173529Y3256876D02*
Y3257086D01*
X0173479Y3256876D02*
Y3257086D01*
X0161937Y3256876D02*
Y3257066D01*
X0156387Y3256876D02*
Y3257066D01*
X0148320Y3256896D02*
Y3257066D01*
X0139929Y3256896D02*
Y3257066D01*
X0139879Y3256896D02*
Y3257066D01*
X0136179Y3256876D02*
Y3257086D01*
X0136229Y3256876D02*
Y3257086D01*
X0143277Y3257002D02*
Y3257000D01*
X0143527Y3257000D02*
X0143277Y3257002D01*
X0143777D02*
X0143527Y3257000D01*
X0143777Y3257000D02*
Y3257002D01*
X0143527Y3257003D02*
X0143777Y3257000D01*
X0143277D02*
X0143527Y3257003D01*
X0119677Y3256845D02*
Y3256843D01*
X0119927Y3256842D02*
X0119677Y3256845D01*
X0120177D02*
X0119927Y3256842D01*
X0120177Y3256843D02*
Y3256845D01*
X0119927Y3256845D02*
X0120177Y3256843D01*
X0119677D02*
X0119927Y3256845D01*
X0143238Y3256845D02*
Y3256843D01*
X0143488Y3256842D02*
X0143238Y3256845D01*
X0143738D02*
X0143488Y3256842D01*
X0143738Y3256843D02*
Y3256845D01*
X0143488Y3256845D02*
X0143738Y3256843D01*
X0143238D02*
X0143488Y3256845D01*
X0126246Y3256852D02*
Y3256847D01*
X0126746Y3256852D02*
X0126246D01*
X0126746Y3256847D02*
Y3256852D01*
X0126246Y3256847D02*
X0126746D01*
Y3256852D02*
X0126246Y3256847D01*
X0126746D02*
X0126246Y3256852D01*
Y3256862D02*
Y3256857D01*
X0126746Y3256862D02*
X0126246D01*
X0126746Y3256857D02*
Y3256862D01*
X0126246Y3256857D02*
X0126746D01*
Y3256862D02*
X0126246Y3256857D01*
X0126746D02*
X0126246Y3256862D01*
X0128974Y3256967D02*
X0128724Y3256965D01*
X0129224D02*
X0128974Y3256967D01*
Y3256962D02*
X0129224Y3256965D01*
X0128724D02*
X0128974Y3256962D01*
Y3256957D02*
X0128724Y3256955D01*
X0129224D02*
X0128974Y3256957D01*
Y3256952D02*
X0129224Y3256955D01*
X0128724D02*
X0128974Y3256952D01*
Y3256947D02*
X0128724Y3256945D01*
X0129224D02*
X0128974Y3256947D01*
Y3256942D02*
X0129224Y3256945D01*
X0128724D02*
X0128974Y3256942D01*
Y3256937D02*
X0128724Y3256935D01*
X0129224D02*
X0128974Y3256937D01*
Y3256932D02*
X0129224Y3256935D01*
X0128724D02*
X0128974Y3256932D01*
Y3256927D02*
X0128724Y3256925D01*
X0129224D02*
X0128974Y3256927D01*
Y3256922D02*
X0129224Y3256925D01*
X0128724D02*
X0128974Y3256922D01*
Y3256917D02*
X0128724Y3256915D01*
X0129224D02*
X0128974Y3256917D01*
Y3256912D02*
X0129224Y3256915D01*
X0128724D02*
X0128974Y3256912D01*
Y3256907D02*
X0128724Y3256905D01*
X0129224D02*
X0128974Y3256907D01*
Y3256902D02*
X0129224Y3256905D01*
X0128724D02*
X0128974Y3256902D01*
Y3256897D02*
X0128724Y3256895D01*
X0129224D02*
X0128974Y3256897D01*
Y3256892D02*
X0129224Y3256895D01*
X0128724D02*
X0128974Y3256892D01*
Y3256887D02*
X0128724Y3256885D01*
X0129224D02*
X0128974Y3256887D01*
Y3256882D02*
X0129224Y3256885D01*
X0128724D02*
X0128974Y3256882D01*
Y3256877D02*
X0128724Y3256875D01*
X0129224D02*
X0128974Y3256877D01*
Y3256872D02*
X0129224Y3256875D01*
X0128724D02*
X0128974Y3256872D01*
Y3256867D02*
X0128724Y3256865D01*
X0129224D02*
X0128974Y3256867D01*
Y3256862D02*
X0129224Y3256865D01*
X0128724D02*
X0128974Y3256862D01*
Y3256857D02*
X0128724Y3256855D01*
X0129224D02*
X0128974Y3256857D01*
Y3256852D02*
X0129224Y3256855D01*
X0128724D02*
X0128974Y3256852D01*
Y3256847D02*
X0128724Y3256845D01*
X0129224D02*
X0128974Y3256847D01*
Y3256842D02*
X0129224Y3256845D01*
X0128724D02*
X0128974Y3256842D01*
Y3256837D02*
X0128724Y3256835D01*
X0129224D02*
X0128974Y3256837D01*
Y3256832D02*
X0129224Y3256835D01*
X0128724D02*
X0128974Y3256832D01*
Y3256827D02*
X0128724Y3256825D01*
X0129224D02*
X0128974Y3256827D01*
Y3256822D02*
X0129224Y3256825D01*
X0128724D02*
X0128974Y3256822D01*
Y3256817D02*
X0128724Y3256815D01*
X0129224D02*
X0128974Y3256817D01*
Y3256812D02*
X0129224Y3256815D01*
X0128724D02*
X0128974Y3256812D01*
Y3256807D02*
X0128724Y3256805D01*
X0129224D02*
X0128974Y3256807D01*
Y3256802D02*
X0129224Y3256805D01*
X0128724D02*
X0128974Y3256802D01*
Y3256797D02*
X0128724Y3256795D01*
X0129224D02*
X0128974Y3256797D01*
Y3256792D02*
X0129224Y3256795D01*
X0128724D02*
X0128974Y3256792D01*
Y3256787D02*
X0128724Y3256785D01*
X0129224D02*
X0128974Y3256787D01*
Y3256782D02*
X0129224Y3256785D01*
X0128724D02*
X0128974Y3256782D01*
Y3256777D02*
X0128724Y3256775D01*
X0129224D02*
X0128974Y3256777D01*
Y3256772D02*
X0129224Y3256775D01*
X0128724D02*
X0128974Y3256772D01*
X0134974Y3256777D02*
X0134724Y3256775D01*
X0135224D02*
X0134974Y3256777D01*
Y3256772D02*
X0135224Y3256775D01*
X0134724D02*
X0134974Y3256772D01*
Y3256787D02*
X0134724Y3256785D01*
X0135224D02*
X0134974Y3256787D01*
Y3256782D02*
X0135224Y3256785D01*
X0134724D02*
X0134974Y3256782D01*
Y3256797D02*
X0134724Y3256795D01*
X0135224D02*
X0134974Y3256797D01*
Y3256792D02*
X0135224Y3256795D01*
X0134724D02*
X0134974Y3256792D01*
Y3256807D02*
X0134724Y3256805D01*
X0135224D02*
X0134974Y3256807D01*
Y3256802D02*
X0135224Y3256805D01*
X0134724D02*
X0134974Y3256802D01*
Y3256817D02*
X0134724Y3256815D01*
X0135224D02*
X0134974Y3256817D01*
Y3256812D02*
X0135224Y3256815D01*
X0134724D02*
X0134974Y3256812D01*
Y3256827D02*
X0134724Y3256825D01*
X0135224D02*
X0134974Y3256827D01*
Y3256822D02*
X0135224Y3256825D01*
X0134724D02*
X0134974Y3256822D01*
Y3256837D02*
X0134724Y3256835D01*
X0135224D02*
X0134974Y3256837D01*
Y3256832D02*
X0135224Y3256835D01*
X0134724D02*
X0134974Y3256832D01*
Y3256847D02*
X0134724Y3256845D01*
X0135224D02*
X0134974Y3256847D01*
Y3256842D02*
X0135224Y3256845D01*
X0134724D02*
X0134974Y3256842D01*
Y3256857D02*
X0134724Y3256855D01*
X0135224D02*
X0134974Y3256857D01*
Y3256852D02*
X0135224Y3256855D01*
X0134724D02*
X0134974Y3256852D01*
Y3256867D02*
X0134724Y3256865D01*
X0135224D02*
X0134974Y3256867D01*
Y3256862D02*
X0135224Y3256865D01*
X0134724D02*
X0134974Y3256862D01*
Y3256877D02*
X0134724Y3256875D01*
X0135224D02*
X0134974Y3256877D01*
Y3256872D02*
X0135224Y3256875D01*
X0134724D02*
X0134974Y3256872D01*
Y3256887D02*
X0134724Y3256885D01*
X0135224D02*
X0134974Y3256887D01*
Y3256882D02*
X0135224Y3256885D01*
X0134724D02*
X0134974Y3256882D01*
Y3256897D02*
X0134724Y3256895D01*
X0135224D02*
X0134974Y3256897D01*
Y3256892D02*
X0135224Y3256895D01*
X0134724D02*
X0134974Y3256892D01*
Y3256907D02*
X0134724Y3256905D01*
X0135224D02*
X0134974Y3256907D01*
Y3256902D02*
X0135224Y3256905D01*
X0134724D02*
X0134974Y3256902D01*
Y3256917D02*
X0134724Y3256915D01*
X0135224D02*
X0134974Y3256917D01*
Y3256912D02*
X0135224Y3256915D01*
X0134724D02*
X0134974Y3256912D01*
Y3256927D02*
X0134724Y3256925D01*
X0135224D02*
X0134974Y3256927D01*
Y3256922D02*
X0135224Y3256925D01*
X0134724D02*
X0134974Y3256922D01*
Y3256937D02*
X0134724Y3256935D01*
X0135224D02*
X0134974Y3256937D01*
Y3256932D02*
X0135224Y3256935D01*
X0134724D02*
X0134974Y3256932D01*
Y3256947D02*
X0134724Y3256945D01*
X0135224D02*
X0134974Y3256947D01*
Y3256942D02*
X0135224Y3256945D01*
X0134724D02*
X0134974Y3256942D01*
Y3256957D02*
X0134724Y3256955D01*
X0135224D02*
X0134974Y3256957D01*
Y3256952D02*
X0135224Y3256955D01*
X0134724D02*
X0134974Y3256952D01*
Y3256967D02*
X0134724Y3256965D01*
X0135224D02*
X0134974Y3256967D01*
Y3256962D02*
X0135224Y3256965D01*
X0134724D02*
X0134974Y3256962D01*
X0117947Y3256964D02*
Y3256961D01*
X0118197Y3256964D02*
X0117947D01*
X0118197Y3256959D02*
Y3256964D01*
X0118447Y3256959D02*
X0118197D01*
X0118447Y3256961D02*
Y3256959D01*
X0117947Y3256961D02*
X0118447D01*
X0118947Y3256964D02*
Y3256961D01*
X0119197Y3256964D02*
X0118947D01*
X0119197Y3256959D02*
Y3256964D01*
X0119447Y3256959D02*
X0119197D01*
X0119447Y3256961D02*
Y3256959D01*
X0118947Y3256961D02*
X0119447D01*
X0119947Y3256964D02*
Y3256961D01*
X0120197Y3256964D02*
X0119947D01*
X0120197Y3256959D02*
Y3256964D01*
X0120447Y3256959D02*
X0120197D01*
X0120447Y3256961D02*
Y3256959D01*
X0119947Y3256961D02*
X0120447D01*
X0141339Y3256970D02*
Y3256965D01*
X0141839Y3256970D02*
X0141339D01*
X0141839Y3256965D02*
Y3256970D01*
X0141339Y3256965D02*
X0141839D01*
Y3256967D02*
X0141339D01*
X0141589Y3256970D02*
Y3256965D01*
X0140339Y3256970D02*
Y3256965D01*
X0140839Y3256970D02*
X0140339D01*
X0140839Y3256965D02*
Y3256970D01*
X0140339Y3256965D02*
X0140839D01*
Y3256967D02*
X0140339D01*
X0140589Y3256970D02*
Y3256965D01*
X0137990Y3256977D02*
X0137490Y3256972D01*
X0137990D02*
X0137490Y3256977D01*
X0137990Y3257007D02*
X0137490Y3257002D01*
X0137990D02*
X0137490Y3257007D01*
X0116913Y3256778D02*
X0116413Y3256773D01*
X0116913D02*
X0116413Y3256778D01*
X0116913Y3256748D02*
X0116413Y3256743D01*
X0116913D02*
X0116413Y3256748D01*
X0117975Y3256778D02*
X0117475Y3256773D01*
X0117975D02*
X0117475Y3256778D01*
X0117975Y3256748D02*
X0117475Y3256743D01*
X0117975D02*
X0117475Y3256748D01*
X0124386Y3256811D02*
X0123886Y3256806D01*
X0124386D02*
X0123886Y3256811D01*
X0124386Y3256781D02*
X0123886Y3256776D01*
X0124386D02*
X0123886Y3256781D01*
X0117267Y3256818D02*
X0116767Y3256813D01*
X0117267D02*
X0116767Y3256818D01*
X0117267Y3256788D02*
X0116767Y3256783D01*
X0117267D02*
X0116767Y3256788D01*
X0119469Y3256789D02*
X0118969Y3256784D01*
X0119469D02*
X0118969Y3256789D01*
X0119469Y3256819D02*
X0118969Y3256814D01*
X0119469D02*
X0118969Y3256819D01*
X0137563Y3256882D02*
X0137063Y3256877D01*
X0137563D02*
X0137063Y3256882D01*
X0137563Y3256912D02*
X0137063Y3256907D01*
X0137563D02*
X0137063Y3256912D01*
X0143974Y3257016D02*
X0143474Y3257011D01*
X0143974D02*
X0143474Y3257016D01*
X0140974D02*
X0140474Y3257011D01*
X0140974D02*
X0140474Y3257016D01*
X0138625Y3256754D02*
X0138125Y3256749D01*
X0138625D02*
X0138125Y3256754D01*
X0137625Y3256764D02*
X0137125Y3256759D01*
X0137625D02*
X0137125Y3256764D01*
X0138625Y3256774D02*
X0138125Y3256769D01*
X0138625D02*
X0138125Y3256774D01*
X0122223Y3256823D02*
X0121723D01*
X0121973Y3256825D02*
Y3256820D01*
X0122223Y3256818D02*
X0121723D01*
X0121973Y3256820D02*
Y3256815D01*
X0122223Y3256813D02*
X0121723D01*
X0121973Y3256815D02*
Y3256810D01*
X0121790Y3256780D02*
X0121290D01*
X0121540Y3256783D02*
Y3256778D01*
X0121790Y3256785D02*
X0121290D01*
X0121540Y3256788D02*
Y3256783D01*
X0121790Y3256790D02*
X0121290D01*
X0121540Y3256793D02*
Y3256788D01*
X0143199Y3256916D02*
Y3256911D01*
X0143699Y3256916D02*
X0143199D01*
X0143699Y3256911D02*
Y3256916D01*
X0143199Y3256911D02*
X0143699D01*
Y3256914D02*
X0143199D01*
X0143449Y3256916D02*
Y3256911D01*
X0143199Y3256906D02*
Y3256901D01*
X0143699Y3256906D02*
X0143199D01*
X0143699Y3256901D02*
Y3256906D01*
X0143199Y3256901D02*
X0143699D01*
Y3256904D02*
X0143199D01*
X0143449Y3256906D02*
Y3256901D01*
X0143199Y3256896D02*
Y3256891D01*
X0143699Y3256896D02*
X0143199D01*
X0143699Y3256891D02*
Y3256896D01*
X0143199Y3256891D02*
X0143699D01*
Y3256894D02*
X0143199D01*
X0143449Y3256896D02*
Y3256891D01*
X0143199Y3256886D02*
Y3256881D01*
X0143699Y3256886D02*
X0143199D01*
X0143699Y3256881D02*
Y3256886D01*
X0143199Y3256881D02*
X0143699D01*
Y3256884D02*
X0143199D01*
X0143449Y3256886D02*
Y3256881D01*
X0127662Y3257017D02*
Y3257014D01*
X0127912Y3257017D02*
X0127662D01*
X0127912Y3257012D02*
Y3257017D01*
X0128162Y3257012D02*
X0127912D01*
X0128162Y3257014D02*
Y3257012D01*
X0127662Y3257014D02*
X0128162D01*
X0129630Y3257017D02*
Y3257014D01*
X0129880Y3257017D02*
X0129630D01*
X0129880Y3257012D02*
Y3257017D01*
X0130130Y3257012D02*
X0129880D01*
X0130130Y3257014D02*
Y3257012D01*
X0129630Y3257014D02*
X0130130D01*
X0143081Y3256952D02*
Y3256950D01*
X0143231Y3256953D02*
X0143081Y3256952D01*
X0143431Y3256953D02*
X0143231D01*
X0143581Y3256952D02*
X0143431Y3256953D01*
X0143581Y3256950D02*
Y3256952D01*
X0143431Y3256948D02*
X0143581Y3256950D01*
X0143231Y3256948D02*
X0143431D01*
X0143081Y3256950D02*
X0143231Y3256948D01*
X0144104Y3256952D02*
Y3256950D01*
X0144254Y3256953D02*
X0144104Y3256952D01*
X0144454Y3256953D02*
X0144254D01*
X0144604Y3256952D02*
X0144454Y3256953D01*
X0144604Y3256950D02*
Y3256952D01*
X0144454Y3256948D02*
X0144604Y3256950D01*
X0144254Y3256948D02*
X0144454D01*
X0144104Y3256950D02*
X0144254Y3256948D01*
X0143081Y3256983D02*
Y3256981D01*
X0143231Y3256984D02*
X0143081Y3256983D01*
X0143431Y3256984D02*
X0143231D01*
X0143581Y3256983D02*
X0143431Y3256984D01*
X0143581Y3256981D02*
Y3256983D01*
X0143431Y3256979D02*
X0143581Y3256981D01*
X0143231Y3256979D02*
X0143431D01*
X0143081Y3256981D02*
X0143231Y3256979D01*
X0144104Y3256983D02*
Y3256981D01*
X0144254Y3256984D02*
X0144104Y3256983D01*
X0144454Y3256984D02*
X0144254D01*
X0144604Y3256983D02*
X0144454Y3256984D01*
X0144604Y3256981D02*
Y3256983D01*
X0144454Y3256979D02*
X0144604Y3256981D01*
X0144254Y3256979D02*
X0144454D01*
X0144104Y3256981D02*
X0144254Y3256979D01*
X0124555Y3256998D02*
Y3256993D01*
X0125055Y3256998D02*
X0124555D01*
X0125055Y3256993D02*
Y3256998D01*
X0124555Y3256993D02*
X0125055D01*
Y3256998D02*
X0124555Y3256993D01*
X0125055D02*
X0124555Y3256998D01*
Y3256988D02*
Y3256983D01*
X0125055Y3256988D02*
X0124555D01*
X0125055Y3256983D02*
Y3256988D01*
X0124555Y3256983D02*
X0125055D01*
Y3256988D02*
X0124555Y3256983D01*
X0125055D02*
X0124555Y3256988D01*
X0126010Y3256761D02*
Y3256756D01*
X0126510Y3256761D02*
X0126010D01*
X0126510Y3256756D02*
Y3256761D01*
X0126010Y3256756D02*
X0126510D01*
Y3256761D02*
X0126010Y3256756D01*
X0126510D02*
X0126010Y3256761D01*
Y3256771D02*
Y3256766D01*
X0126510Y3256771D02*
X0126010D01*
X0126510Y3256766D02*
Y3256771D01*
X0126010Y3256766D02*
X0126510D01*
Y3256771D02*
X0126010Y3256766D01*
X0126510D02*
X0126010Y3256771D01*
Y3256781D02*
Y3256776D01*
X0126510Y3256781D02*
X0126010D01*
X0126510Y3256776D02*
Y3256781D01*
X0126010Y3256776D02*
X0126510D01*
Y3256781D02*
X0126010Y3256776D01*
X0126510D02*
X0126010Y3256781D01*
Y3256791D02*
Y3256786D01*
X0126510Y3256791D02*
X0126010D01*
X0126510Y3256786D02*
Y3256791D01*
X0126010Y3256786D02*
X0126510D01*
Y3256791D02*
X0126010Y3256786D01*
X0126510D02*
X0126010Y3256791D01*
Y3256801D02*
Y3256796D01*
X0126510Y3256801D02*
X0126010D01*
X0126510Y3256796D02*
Y3256801D01*
X0126010Y3256796D02*
X0126510D01*
Y3256801D02*
X0126010Y3256796D01*
X0126510D02*
X0126010Y3256801D01*
Y3256811D02*
Y3256806D01*
X0126510Y3256811D02*
X0126010D01*
X0126510Y3256806D02*
Y3256811D01*
X0126010Y3256806D02*
X0126510D01*
Y3256811D02*
X0126010Y3256806D01*
X0126510D02*
X0126010Y3256811D01*
Y3256821D02*
Y3256816D01*
X0126510Y3256821D02*
X0126010D01*
X0126510Y3256816D02*
Y3256821D01*
X0126010Y3256816D02*
X0126510D01*
Y3256821D02*
X0126010Y3256816D01*
X0126510D02*
X0126010Y3256821D01*
Y3256831D02*
Y3256826D01*
X0126510Y3256831D02*
X0126010D01*
X0126510Y3256826D02*
Y3256831D01*
X0126010Y3256826D02*
X0126510D01*
Y3256831D02*
X0126010Y3256826D01*
X0126510D02*
X0126010Y3256831D01*
X0116806Y3256846D02*
Y3256841D01*
X0117306Y3256846D02*
X0116806D01*
X0117306Y3256841D02*
Y3256846D01*
X0116806Y3256841D02*
X0117306D01*
Y3256846D02*
X0116806Y3256841D01*
X0117306D02*
X0116806Y3256846D01*
Y3256836D02*
Y3256831D01*
X0117306Y3256836D02*
X0116806D01*
X0117306Y3256831D02*
Y3256836D01*
X0116806Y3256831D02*
X0117306D01*
Y3256836D02*
X0116806Y3256831D01*
X0117306D02*
X0116806Y3256836D01*
X0118261Y3256845D02*
Y3256840D01*
X0118761Y3256845D02*
X0118261D01*
X0118761Y3256840D02*
Y3256845D01*
X0118261Y3256840D02*
X0118761D01*
Y3256845D02*
X0118261Y3256840D01*
X0118761D02*
X0118261Y3256845D01*
Y3256835D02*
Y3256830D01*
X0118761Y3256835D02*
X0118261D01*
X0118761Y3256830D02*
Y3256835D01*
X0118261Y3256830D02*
X0118761D01*
Y3256835D02*
X0118261Y3256830D01*
X0118761D02*
X0118261Y3256835D01*
X0125617Y3256905D02*
Y3256900D01*
X0126117Y3256905D02*
X0125617D01*
X0126117Y3256900D02*
Y3256905D01*
X0125617Y3256900D02*
X0126117D01*
Y3256905D02*
X0125617Y3256900D01*
X0126117D02*
X0125617Y3256905D01*
Y3256915D02*
Y3256910D01*
X0126117Y3256915D02*
X0125617D01*
X0126117Y3256910D02*
Y3256915D01*
X0125617Y3256910D02*
X0126117D01*
Y3256915D02*
X0125617Y3256910D01*
X0126117D02*
X0125617Y3256915D01*
Y3256925D02*
Y3256920D01*
X0126117Y3256925D02*
X0125617D01*
X0126117Y3256920D02*
Y3256925D01*
X0125617Y3256920D02*
X0126117D01*
Y3256925D02*
X0125617Y3256920D01*
X0126117D02*
X0125617Y3256925D01*
Y3256935D02*
Y3256930D01*
X0126117Y3256935D02*
X0125617D01*
X0126117Y3256930D02*
Y3256935D01*
X0125617Y3256930D02*
X0126117D01*
Y3256935D02*
X0125617Y3256930D01*
X0126117D02*
X0125617Y3256935D01*
Y3256945D02*
Y3256940D01*
X0126117Y3256945D02*
X0125617D01*
X0126117Y3256940D02*
Y3256945D01*
X0125617Y3256940D02*
X0126117D01*
Y3256945D02*
X0125617Y3256940D01*
X0126117D02*
X0125617Y3256945D01*
Y3256955D02*
Y3256950D01*
X0126117Y3256955D02*
X0125617D01*
X0126117Y3256950D02*
Y3256955D01*
X0125617Y3256950D02*
X0126117D01*
Y3256955D02*
X0125617Y3256950D01*
X0126117D02*
X0125617Y3256955D01*
X0140052Y3256759D02*
Y3256754D01*
X0140552Y3256759D02*
X0140052D01*
X0140552Y3256754D02*
Y3256759D01*
X0140052Y3256754D02*
X0140552D01*
Y3256757D02*
X0140052D01*
X0140302Y3256759D02*
Y3256754D01*
X0140052Y3256769D02*
Y3256764D01*
X0140552Y3256769D02*
X0140052D01*
X0140552Y3256764D02*
Y3256769D01*
X0140052Y3256764D02*
X0140552D01*
Y3256767D02*
X0140052D01*
X0140302Y3256769D02*
Y3256764D01*
X0140052Y3256779D02*
Y3256774D01*
X0140552Y3256779D02*
X0140052D01*
X0140552Y3256774D02*
Y3256779D01*
X0140052Y3256774D02*
X0140552D01*
Y3256777D02*
X0140052D01*
X0140302Y3256779D02*
Y3256774D01*
X0140052Y3256789D02*
Y3256784D01*
X0140552Y3256789D02*
X0140052D01*
X0140552Y3256784D02*
Y3256789D01*
X0140052Y3256784D02*
X0140552D01*
Y3256787D02*
X0140052D01*
X0140302Y3256789D02*
Y3256784D01*
X0140052Y3256799D02*
Y3256794D01*
X0140552Y3256799D02*
X0140052D01*
X0140552Y3256794D02*
Y3256799D01*
X0140052Y3256794D02*
X0140552D01*
Y3256797D02*
X0140052D01*
X0140302Y3256799D02*
Y3256794D01*
X0140052Y3256809D02*
Y3256804D01*
X0140552Y3256809D02*
X0140052D01*
X0140552Y3256804D02*
Y3256809D01*
X0140052Y3256804D02*
X0140552D01*
Y3256807D02*
X0140052D01*
X0140302Y3256809D02*
Y3256804D01*
X0140052Y3256819D02*
Y3256814D01*
X0140552Y3256819D02*
X0140052D01*
X0140552Y3256814D02*
Y3256819D01*
X0140052Y3256814D02*
X0140552D01*
Y3256817D02*
X0140052D01*
X0140302Y3256819D02*
Y3256814D01*
X0140052Y3256829D02*
Y3256824D01*
X0140552Y3256829D02*
X0140052D01*
X0140552Y3256824D02*
Y3256829D01*
X0140052Y3256824D02*
X0140552D01*
Y3256827D02*
X0140052D01*
X0140302Y3256829D02*
Y3256824D01*
X0140052Y3256839D02*
Y3256834D01*
X0140552Y3256839D02*
X0140052D01*
X0140552Y3256834D02*
Y3256839D01*
X0140052Y3256834D02*
X0140552D01*
Y3256837D02*
X0140052D01*
X0140302Y3256839D02*
Y3256834D01*
X0140052Y3256849D02*
Y3256844D01*
X0140552Y3256849D02*
X0140052D01*
X0140552Y3256844D02*
Y3256849D01*
X0140052Y3256844D02*
X0140552D01*
Y3256847D02*
X0140052D01*
X0140302Y3256849D02*
Y3256844D01*
X0140052Y3256859D02*
Y3256854D01*
X0140552Y3256859D02*
X0140052D01*
X0140552Y3256854D02*
Y3256859D01*
X0140052Y3256854D02*
X0140552D01*
Y3256857D02*
X0140052D01*
X0140302Y3256859D02*
Y3256854D01*
X0140052Y3256869D02*
Y3256864D01*
X0140552Y3256869D02*
X0140052D01*
X0140552Y3256864D02*
Y3256869D01*
X0140052Y3256864D02*
X0140552D01*
Y3256867D02*
X0140052D01*
X0140302Y3256869D02*
Y3256864D01*
X0140052Y3256879D02*
Y3256874D01*
X0140552Y3256879D02*
X0140052D01*
X0140552Y3256874D02*
Y3256879D01*
X0140052Y3256874D02*
X0140552D01*
Y3256877D02*
X0140052D01*
X0140302Y3256879D02*
Y3256874D01*
X0140052Y3256889D02*
Y3256884D01*
X0140552Y3256889D02*
X0140052D01*
X0140552Y3256884D02*
Y3256889D01*
X0140052Y3256884D02*
X0140552D01*
Y3256887D02*
X0140052D01*
X0140302Y3256889D02*
Y3256884D01*
X0140052Y3256899D02*
Y3256894D01*
X0140552Y3256899D02*
X0140052D01*
X0140552Y3256894D02*
Y3256899D01*
X0140052Y3256894D02*
X0140552D01*
Y3256897D02*
X0140052D01*
X0140302Y3256899D02*
Y3256894D01*
X0140052Y3256909D02*
Y3256904D01*
X0140552Y3256909D02*
X0140052D01*
X0140552Y3256904D02*
Y3256909D01*
X0140052Y3256904D02*
X0140552D01*
Y3256907D02*
X0140052D01*
X0140302Y3256909D02*
Y3256904D01*
X0122958Y3257016D02*
X0122708Y3257014D01*
X0123208D02*
X0122958Y3257016D01*
X0122708Y3257014D02*
X0123208D01*
X0120599Y3257016D02*
X0120349Y3257014D01*
X0120849D02*
X0120599Y3257016D01*
X0120349Y3257014D02*
X0120849D01*
X0124622Y3256756D02*
X0124122D01*
X0124372Y3256758D02*
Y3256753D01*
X0119122Y3256756D02*
X0118622D01*
X0118872Y3256758D02*
Y3256753D01*
X0122877Y3256852D02*
X0122627Y3256850D01*
X0123127D02*
X0122877Y3256852D01*
Y3256847D02*
X0123127Y3256850D01*
X0122627D02*
X0122877Y3256847D01*
X0124877Y3256852D02*
X0124627Y3256850D01*
X0125127D02*
X0124877Y3256852D01*
Y3256847D02*
X0125127Y3256850D01*
X0124627D02*
X0124877Y3256847D01*
X0122799Y3256868D02*
X0122549Y3256866D01*
X0123049D02*
X0122799Y3256868D01*
Y3256863D02*
X0123049Y3256866D01*
X0122549D02*
X0122799Y3256863D01*
X0124799Y3256868D02*
X0124549Y3256866D01*
X0125049D02*
X0124799Y3256868D01*
Y3256863D02*
X0125049Y3256866D01*
X0124549D02*
X0124799Y3256863D01*
X0119101Y3256941D02*
X0118851Y3256938D01*
X0119351D02*
X0119101Y3256941D01*
Y3256936D02*
X0119351Y3256938D01*
X0118851D02*
X0119101Y3256936D01*
X0121101Y3256941D02*
X0120851Y3256938D01*
X0121351D02*
X0121101Y3256941D01*
Y3256936D02*
X0121351Y3256938D01*
X0120851D02*
X0121101Y3256936D01*
X0117921Y3256909D02*
X0117671Y3256907D01*
X0118171D02*
X0117921Y3256909D01*
Y3256904D02*
X0118171Y3256907D01*
X0117671D02*
X0117921Y3256904D01*
X0119921Y3256909D02*
X0119671Y3256907D01*
X0120171D02*
X0119921Y3256909D01*
Y3256904D02*
X0120171Y3256907D01*
X0119671D02*
X0119921Y3256904D01*
M02*
