%
T2C0.028F200S100
X116663Y325674640
X116663Y325677640
X117017Y325678573
X117017Y325681573
X117725Y325674640
X117725Y325677640
X119101Y325692547
X119219Y325678702
X119219Y325681702
X119573Y325698998
X123192Y325690305
X124136Y325677876
X124136Y325680876
X126693Y325683894
X132003Y325683776
X132750Y325682557
X134441Y325700453
X137313Y325678663
X137375Y325676201
X137313Y325687985
X137313Y325690985
X137740Y325697537
X137740Y325700537
X137942Y325680747
X138257Y325690187
X138375Y325675201
X138375Y325677201
X139122Y325700375
X139948Y325694278
X140724Y325701397
X142308Y325689401
X142426Y325678899
X142859Y325676303
X143213Y325693570
X143724Y325701397
X144196Y325686254
X144865Y325691328
T8C0.054F200S100
X118197Y325696166
X119197Y325696166
X120197Y325696166
T4C0.034F200S100
X117921Y325690738
X119101Y325693885
X119921Y325690738
X121101Y325693885
X122799Y325686647
X122877Y325685035
X124799Y325686647
X124877Y325685035
X128974Y325677520
X128974Y325678520
X128974Y325679520
X128974Y325680520
X128974Y325681520
X128974Y325682520
X128974Y325683520
X128974Y325684520
X128974Y325685520
X128974Y325686520
X128974Y325687520
X128974Y325688520
X128974Y325689520
X128974Y325690520
X128974Y325691520
X128974Y325692520
X128974Y325693520
X128974Y325694520
X128974Y325695520
X128974Y325696520
X134974Y325677520
X134974Y325678520
X134974Y325679520
X134974Y325680520
X134974Y325681520
X134974Y325682520
X134974Y325683520
X134974Y325684520
X134974Y325685520
X134974Y325686520
X134974Y325687520
X134974Y325688520
X134974Y325689520
X134974Y325690520
X134974Y325691520
X134974Y325692520
X134974Y325693520
X134974Y325694520
X134974Y325695520
X134974Y325696520
T3C0.031F200S100
X118872Y325675634
X121540Y325678073
X121540Y325678573
X121540Y325679073
X121973Y325681321
X121973Y325681821
X121973Y325682321
X124372Y325675634
T5C0.037F200S100
X117056Y325683405
X117056Y325684405
X118511Y325683327
X118511Y325684327
X124805Y325698627
X124805Y325699627
X125867Y325690305
X125867Y325691305
X125867Y325692305
X125867Y325693305
X125867Y325694305
X125867Y325695305
X126260Y325675949
X126260Y325676949
X126260Y325677949
X126260Y325678949
X126260Y325679949
X126260Y325680949
X126260Y325681949
X126260Y325682949
X126496Y325684995
X126496Y325685995
T7C0.042F200S100
X140302Y325675713
X140302Y325676713
X140302Y325677713
X140302Y325678713
X140302Y325679713
X140302Y325680713
X140302Y325681713
X140302Y325682713
X140302Y325683713
X140302Y325684713
X140302Y325685713
X140302Y325686713
X140302Y325687713
X140302Y325688713
X140302Y325689713
X140302Y325690713
X140589Y325696784
X141589Y325696784
X143449Y325688407
X143449Y325689407
X143449Y325690407
X143449Y325691407
T1C0.027F200S100
X143331Y325695143
X144354Y325695143
X144354Y325698214
X143331Y325698214
T10C0.110F200S100
X119927Y325684445
X143488Y325684405
X143527Y325700178
T9C0.078F200S100
X120599Y325701531
X122958Y325701515
T6C0.038F200S100
X127912Y325701476
X129880Y325701476
M30
